<?xml version="1.0" encoding="UTF-8" standalone="no"?>
<!-- Created with Inkscape (http://www.inkscape.org/) -->

<svg
   xmlns:dc="http://purl.org/dc/elements/1.1/"
   xmlns:cc="http://creativecommons.org/ns#"
   xmlns:rdf="http://www.w3.org/1999/02/22-rdf-syntax-ns#"
   xmlns:svg="http://www.w3.org/2000/svg"
   xmlns="http://www.w3.org/2000/svg"
   xmlns:sodipodi="http://sodipodi.sourceforge.net/DTD/sodipodi-0.dtd"
   xmlns:inkscape="http://www.inkscape.org/namespaces/inkscape"
   width="320"
   height="80"
   id="svg2"
   version="1.1"
   inkscape:version="0.48.5 r10040"
   sodipodi:docname="flowers.svg"
   inkscape:export-filename="C:\Work\lent\flowers\flowers2.png"
   inkscape:export-xdpi="90"
   inkscape:export-ydpi="90">
  <defs
     id="defs4" />
  <sodipodi:namedview
     id="base"
     pagecolor="#ffffff"
     bordercolor="#666666"
     borderopacity="1.0"
     inkscape:pageopacity="0.0"
     inkscape:pageshadow="2"
     inkscape:zoom="1.375"
     inkscape:cx="139.93676"
     inkscape:cy="126.60037"
     inkscape:document-units="px"
     inkscape:current-layer="layer1"
     showgrid="false"
     inkscape:window-width="1920"
     inkscape:window-height="1018"
     inkscape:window-x="-8"
     inkscape:window-y="-8"
     inkscape:window-maximized="1" />
  <metadata
     id="metadata7">
    <rdf:RDF>
      <cc:Work
         rdf:about="">
        <dc:format>image/svg+xml</dc:format>
        <dc:type
           rdf:resource="http://purl.org/dc/dcmitype/StillImage" />
        <dc:title></dc:title>
      </cc:Work>
    </rdf:RDF>
  </metadata>
  <g
     inkscape:label="Layer 1"
     inkscape:groupmode="layer"
     id="layer1"
     transform="translate(0,-972.36218)">
    <g
       id="g3036"
       transform="matrix(0.23199983,-0.03639807,0.03639807,0.23199983,205.58009,1109.005)">
      <path
         inkscape:connector-curvature="0"
         id="path3006"
         d="m 463.43304,-321.80804 -5.53125,3.09375 c -14.2941,7.9961 -24.5016,17.28957 -28.3125,25.78125 -1.5738,3.5076 -1.869,5.8758 -1.5,11.5 0.5295,8.07219 2.34245,12.18579 12.46875,28.375 3.5451,5.66769 7.66855,12.86769 9.15625,16 1.4877,3.13231 3.07605,6.27501 3.53125,7 0.4846,0.77164 1.50345,1.03666 2.46875,0.625 9.0174,-3.84595 14.35682,-4.32725 21.21875,-1.90625 2.3821,0.84047 4.8297,1.32698 5.4375,1.09375 0.6078,-0.23322 1.67045,-2.3865 2.34375,-4.78125 0.6734,-2.39475 5.07175,-11.99375 9.78125,-21.34375 7.5071,-14.90421 8.62915,-17.81078 9.09375,-23.625 0.4534,-5.67547 0.14905,-7.42524 -2.03125,-12.1875 -4.2737,-9.33513 -16.04587,-19.20155 -31.875,-26.6875 l -6.25,-2.9375 z m 73.5,52.75 c -10.2826,0 -16.6129,4.62589 -32.3125,23.6875 -3.624,4.4 -8.8913,10.23942 -11.6875,12.96875 -2.7962,2.72932 -5.0625,5.33481 -5.0625,5.78125 0,0.44643 1.56205,3.07197 3.46875,5.84375 3.6755,5.34322 4.7761,9.2096 4.9375,17.375 l 0.0937,5.03125 9.5,0.75 c 5.225,0.41444 14.225,1.86092 20,3.21875 23.6202,5.55363 34.89299,1.33398 42.53125,-15.9375 3.1038,-7.0181 6.3918,-19.96933 7.1563,-28.15625 0.5711,-6.11677 0.4406,-6.59754 -2.3126,-9.5 -5.6888,-5.99746 -17.4637,-14.80167 -23.9687,-17.90625 -5.0401,-2.40542 -7.97385,-3.15625 -12.34375,-3.15625 z m -135.375,4.1875 c -10.5732,0 -19.35687,4.83323 -33.5625,18.46875 l -8.375,8.03125 0.625,5.96875 c 0.79867,7.64131 4.10074,19.41882 7.4375,26.5 3.16765,6.72233 10.73719,14.58933 15.3125,15.90625 6.8137,1.96119 15.1857,1.20955 31.4375,-2.78125 8.7593,-2.15093 18.525,-4.23756 21.6875,-4.625 l 5.75,-0.6875 0,-6.75 c 0,-6.64493 1.7184,-11.57356 7,-19.84375 1.3852,-2.16891 1.316,-2.44199 -1.5,-4.4375 -3.1073,-2.20191 -9.24925,-8.264 -23.09375,-22.875 -9.4937,-10.01929 -14.51455,-12.875 -22.71875,-12.875 z m 66.625,38.46875 c -7.81705,0.30304 -15.5306,4.9275 -19.3125,13.71875 -5.0149,11.65741 -0.005,24.66005 11.5,29.9375 2.2,1.0092 6.025,1.84375 8.5,1.84375 15.99093,0 26.77985,-18.58875 19.34375,-33.3125 -4.28205,-8.47865 -12.2142,-12.49054 -20.03125,-12.1875 z m -27.15625,34.6875 c -0.80902,0.0638 -1.59613,0.68216 -2.5625,1.75 -1.6953,1.87326 -5.1544,3.67254 -27.75,14.46875 -13.2233,6.31815 -17.8992,10.6941 -20.375,19.03125 -1.9471,6.55652 -1.85645,10.45834 0.46875,20.15625 1.8582,7.74988 9.0331,25.84561 11.0625,27.875 0.5391,0.53906 4.0382,1.52482 7.75,2.21875 8.13,1.51989 27.1222,1.07205 32.75,-0.78125 2.2802,-0.75091 6.15015,-3.4783 9.03125,-6.34375 6.3385,-6.30404 7.7913,-11.04377 10,-33.03125 0.884,-8.8 2.2368,-18.44043 3,-21.4375 1.6,-6.28385 0.99105,-7.53828 -3.96875,-8.46875 -4.5856,-0.86026 -10.76955,-5.56386 -14.53125,-11.03125 -2.15131,-3.12689 -3.52663,-4.51252 -4.875,-4.40625 z m 54.375,0.4375 c -0.85937,0.13314 -1.69444,1.22238 -3.5625,3.9375 -3.5021,5.09023 -10.33525,9.94698 -16.21875,11.53125 -4.24293,1.14248 -4.33403,1.52841 -2.3125,9.625 0.8007,3.20692 2.16775,12.40853 3.03125,20.46875 2.1521,20.09036 3.47865,24.13783 9.90625,30.40625 3.8181,3.72357 6.63605,5.50519 10.65625,6.6875 10.0742,2.96274 37.07095,1.6909 41.15625,-1.9375 2.1235,-1.88592 8.28565,-16.48593 10.40625,-24.65625 2.0321,-7.82978 2.09925,-18.10188 0.15625,-22.71875 -2.0527,-4.87763 -6.9923,-10.27329 -12.125,-13.28125 -2.3504,-1.3774 -10.0732,-5.05398 -17.1875,-8.15625 -11.7054,-5.10427 -15.25685,-6.92346 -22.09375,-11.25 -0.75746,-0.47932 -1.29688,-0.73613 -1.8125,-0.65625 z"
         style="fill:#7fb2fe" />
      <path
         inkscape:connector-curvature="0"
         id="path2998"
         d="m 468.17857,-227.24554 c -7.817,0.30304 -15.5306,4.9275 -19.3125,13.71875 -5.0149,11.65741 -0.005,24.66005 11.5,29.9375 2.2,1.0092 6.025,1.84375 8.5,1.84375 15.9909,0 26.7799,-18.58875 19.3437,-33.3125 -4.2819,-8.47865 -12.2142,-12.49054 -20.0312,-12.1875 z"
         style="fill:#fe6602" />
    </g>
    <g
       transform="matrix(0.16253936,0.03221821,-0.03221821,0.16253936,201.75661,1015.1356)"
       id="g3040"
       style="fill:#008000">
      <path
         style="fill:#008000"
         d="m 463.43304,-321.80804 -5.53125,3.09375 c -14.2941,7.9961 -24.5016,17.28957 -28.3125,25.78125 -1.5738,3.5076 -1.869,5.8758 -1.5,11.5 0.5295,8.07219 2.34245,12.18579 12.46875,28.375 3.5451,5.66769 7.66855,12.86769 9.15625,16 1.4877,3.13231 3.07605,6.27501 3.53125,7 0.4846,0.77164 1.50345,1.03666 2.46875,0.625 9.0174,-3.84595 14.35682,-4.32725 21.21875,-1.90625 2.3821,0.84047 4.8297,1.32698 5.4375,1.09375 0.6078,-0.23322 1.67045,-2.3865 2.34375,-4.78125 0.6734,-2.39475 5.07175,-11.99375 9.78125,-21.34375 7.5071,-14.90421 8.62915,-17.81078 9.09375,-23.625 0.4534,-5.67547 0.14905,-7.42524 -2.03125,-12.1875 -4.2737,-9.33513 -16.04587,-19.20155 -31.875,-26.6875 l -6.25,-2.9375 z m 73.5,52.75 c -10.2826,0 -16.6129,4.62589 -32.3125,23.6875 -3.624,4.4 -8.8913,10.23942 -11.6875,12.96875 -2.7962,2.72932 -5.0625,5.33481 -5.0625,5.78125 0,0.44643 1.56205,3.07197 3.46875,5.84375 3.6755,5.34322 4.7761,9.2096 4.9375,17.375 l 0.0937,5.03125 9.5,0.75 c 5.225,0.41444 14.225,1.86092 20,3.21875 23.6202,5.55363 34.89299,1.33398 42.53125,-15.9375 3.1038,-7.0181 6.3918,-19.96933 7.1563,-28.15625 0.5711,-6.11677 0.4406,-6.59754 -2.3126,-9.5 -5.6888,-5.99746 -17.4637,-14.80167 -23.9687,-17.90625 -5.0401,-2.40542 -7.97385,-3.15625 -12.34375,-3.15625 z m -135.375,4.1875 c -10.5732,0 -19.35687,4.83323 -33.5625,18.46875 l -8.375,8.03125 0.625,5.96875 c 0.79867,7.64131 4.10074,19.41882 7.4375,26.5 3.16765,6.72233 10.73719,14.58933 15.3125,15.90625 6.8137,1.96119 15.1857,1.20955 31.4375,-2.78125 8.7593,-2.15093 18.525,-4.23756 21.6875,-4.625 l 5.75,-0.6875 0,-6.75 c 0,-6.64493 1.7184,-11.57356 7,-19.84375 1.3852,-2.16891 1.316,-2.44199 -1.5,-4.4375 -3.1073,-2.20191 -9.24925,-8.264 -23.09375,-22.875 -9.4937,-10.01929 -14.51455,-12.875 -22.71875,-12.875 z m 66.625,38.46875 c -7.81705,0.30304 -15.5306,4.9275 -19.3125,13.71875 -5.0149,11.65741 -0.005,24.66005 11.5,29.9375 2.2,1.0092 6.025,1.84375 8.5,1.84375 15.99093,0 26.77985,-18.58875 19.34375,-33.3125 -4.28205,-8.47865 -12.2142,-12.49054 -20.03125,-12.1875 z m -27.15625,34.6875 c -0.80902,0.0638 -1.59613,0.68216 -2.5625,1.75 -1.6953,1.87326 -5.1544,3.67254 -27.75,14.46875 -13.2233,6.31815 -17.8992,10.6941 -20.375,19.03125 -1.9471,6.55652 -1.85645,10.45834 0.46875,20.15625 1.8582,7.74988 9.0331,25.84561 11.0625,27.875 0.5391,0.53906 4.0382,1.52482 7.75,2.21875 8.13,1.51989 27.1222,1.07205 32.75,-0.78125 2.2802,-0.75091 6.15015,-3.4783 9.03125,-6.34375 6.3385,-6.30404 7.7913,-11.04377 10,-33.03125 0.884,-8.8 2.2368,-18.44043 3,-21.4375 1.6,-6.28385 0.99105,-7.53828 -3.96875,-8.46875 -4.5856,-0.86026 -10.76955,-5.56386 -14.53125,-11.03125 -2.15131,-3.12689 -3.52663,-4.51252 -4.875,-4.40625 z m 54.375,0.4375 c -0.85937,0.13314 -1.69444,1.22238 -3.5625,3.9375 -3.5021,5.09023 -10.33525,9.94698 -16.21875,11.53125 -4.24293,1.14248 -4.33403,1.52841 -2.3125,9.625 0.8007,3.20692 2.16775,12.40853 3.03125,20.46875 2.1521,20.09036 3.47865,24.13783 9.90625,30.40625 3.8181,3.72357 6.63605,5.50519 10.65625,6.6875 10.0742,2.96274 37.07095,1.6909 41.15625,-1.9375 2.1235,-1.88592 8.28565,-16.48593 10.40625,-24.65625 2.0321,-7.82978 2.09925,-18.10188 0.15625,-22.71875 -2.0527,-4.87763 -6.9923,-10.27329 -12.125,-13.28125 -2.3504,-1.3774 -10.0732,-5.05398 -17.1875,-8.15625 -11.7054,-5.10427 -15.25685,-6.92346 -22.09375,-11.25 -0.75746,-0.47932 -1.29688,-0.73613 -1.8125,-0.65625 z"
         id="path3042"
         inkscape:connector-curvature="0" />
      <path
         style="fill:#00ffff"
         d="m 468.17857,-227.24554 c -7.817,0.30304 -15.5306,4.9275 -19.3125,13.71875 -5.0149,11.65741 -0.005,24.66005 11.5,29.9375 2.2,1.0092 6.025,1.84375 8.5,1.84375 15.9909,0 26.7799,-18.58875 19.3437,-33.3125 -4.2819,-8.47865 -12.2142,-12.49054 -20.0312,-12.1875 z"
         id="path3044"
         inkscape:connector-curvature="0" />
    </g>
  </g>
</svg>
