<?xml version="1.0" encoding="UTF-8" standalone="no"?>
<!-- Created with Inkscape (http://www.inkscape.org/) -->

<svg
   xmlns:dc="http://purl.org/dc/elements/1.1/"
   xmlns:cc="http://creativecommons.org/ns#"
   xmlns:rdf="http://www.w3.org/1999/02/22-rdf-syntax-ns#"
   xmlns:svg="http://www.w3.org/2000/svg"
   xmlns="http://www.w3.org/2000/svg"
   xmlns:sodipodi="http://sodipodi.sourceforge.net/DTD/sodipodi-0.dtd"
   xmlns:inkscape="http://www.inkscape.org/namespaces/inkscape"
   width="294.96875"
   height="154.5625"
   id="svg4528"
   version="1.1"
   inkscape:version="0.48.5 r10040"
   sodipodi:docname="cloud.svg">
  <defs
     id="defs4530" />
  <sodipodi:namedview
     id="base"
     pagecolor="#ffffff"
     bordercolor="#666666"
     borderopacity="1.0"
     inkscape:pageopacity="0.0"
     inkscape:pageshadow="2"
     inkscape:zoom="0.35"
     inkscape:cx="52.549934"
     inkscape:cy="42.662562"
     inkscape:document-units="px"
     inkscape:current-layer="layer1"
     showgrid="false"
     fit-margin-top="0"
     fit-margin-left="0"
     fit-margin-right="0"
     fit-margin-bottom="0"
     inkscape:window-width="463"
     inkscape:window-height="423"
     inkscape:window-x="75"
     inkscape:window-y="75"
     inkscape:window-maximized="0" />
  <metadata
     id="metadata4533">
    <rdf:RDF>
      <cc:Work
         rdf:about="">
        <dc:format>image/svg+xml</dc:format>
        <dc:type
           rdf:resource="http://purl.org/dc/dcmitype/StillImage" />
        <dc:title />
      </cc:Work>
    </rdf:RDF>
  </metadata>
  <g
     inkscape:label="Layer 1"
     inkscape:groupmode="layer"
     id="layer1"
     transform="translate(-204.12054,-370.26786)">
    <path
       style="fill:#ffffff;fill-opacity:1;stroke:none"
       d="m 347.21428,370.26786 c 2.91117,0.19939 2.85565,0.46901 1.15625,0.84375 -22.14612,4.88349 -40.76816,19.00138 -49.25,37.34375 l -2.46875,5.34375 -5.875,-0.6875 c -12.44759,-1.4447 -24.56892,5.92342 -27.96875,17 l -1.53125,4.96875 -9.46875,0.125 c -5.201,0.068 -11.6875,0.70711 -14.4375,1.40625 -15.67396,3.98487 -28.62842,15.14484 -32.56249,28.03125 -0.27977,0.91643 -0.52916,-8.52829 -0.6875,-22.53125 l 0,33.5625 1.6875,4.6875 c 4.46791,12.41388 15.71315,21.78296 30.78124,25.6875 8.84316,2.2915 22.8982,2.05364 32.59375,-0.5625 6.66197,-1.79759 8.05769,-1.9189 8.71875,-0.75 4.85251,8.58037 12.26228,14.71626 21.625,17.9375 10.52648,3.62164 20.68013,2.04638 31.21875,-4.875 l 5.375,-3.53125 6.28125,1.6875 c 11.72112,3.12323 25.4215,1.77677 35.78125,-3.5 l 3.8125,-1.9375 6.6875,4.5625 c 6.61114,4.50717 14.9024,7.98954 22.65625,9.53125 0.3866,0.0769 -1.16069,0.14546 -3.53125,0.21875 l 22.5625,0 c 10.453,-1.87276 21.93119,-7.75279 30.25,-15.5625 6.001,-5.63373 7.32688,-6.43433 11.9375,-7.03125 11.9752,-1.5504 20.97253,-8.59964 25.59375,-20.09375 0.40113,-0.99771 0.71026,-1.67675 0.9375,-1.75 l 0,-12.5 c -0.177,-0.50347 -0.36902,-1.20282 -0.53125,-2 -0.85662,-4.20936 -6.37699,-11.85469 -11.03125,-15.28125 -5.16376,-3.80165 -12.96667,-6.16883 -19.40625,-5.875 -4.38472,0.20007 -5.42609,-0.18691 -10.25,-4 -6.67224,-5.2741 -11.53775,-7.82537 -20.5,-10.6875 -6.41548,-2.04881 -7.08644,-2.49595 -7.875,-5.5625 -2.59135,-10.07727 -5.29435,-16.58999 -9.59375,-23.09375 -10.57615,-15.99871 -25.4472,-25.99837 -45.03125,-30.21875 -1.9114,-0.41191 -2.48372,-0.69556 -0.375,-0.90625 l -27.28125,0 z"
       id="rect4549"
       inkscape:connector-curvature="0" />
  </g>
</svg>
