<?xml version="1.0" encoding="UTF-8" standalone="no"?>
<!-- Created with Inkscape (http://www.inkscape.org/) -->

<svg
   xmlns:dc="http://purl.org/dc/elements/1.1/"
   xmlns:cc="http://creativecommons.org/ns#"
   xmlns:rdf="http://www.w3.org/1999/02/22-rdf-syntax-ns#"
   xmlns:svg="http://www.w3.org/2000/svg"
   xmlns="http://www.w3.org/2000/svg"
   xmlns:xlink="http://www.w3.org/1999/xlink"
   xmlns:sodipodi="http://sodipodi.sourceforge.net/DTD/sodipodi-0.dtd"
   xmlns:inkscape="http://www.inkscape.org/namespaces/inkscape"
   width="379.52081"
   height="360.77579"
   id="svg3866"
   version="1.1"
   inkscape:version="0.48.5 r10040"
   sodipodi:docname="sun.svg">
  <defs
     id="defs3868">
    <linearGradient
       id="linearGradient4520">
      <stop
         style="stop-color:#ffffff;stop-opacity:1;"
         offset="0"
         id="stop4522" />
      <stop
         style="stop-color:#febc05;stop-opacity:1;"
         offset="1"
         id="stop4524" />
    </linearGradient>
    <radialGradient
       inkscape:collect="always"
       xlink:href="#linearGradient4520"
       id="radialGradient4526"
       cx="328.29959"
       cy="131.10306"
       fx="328.29959"
       fy="131.10306"
       r="89.90358"
       gradientTransform="matrix(1,0,0,0.96629206,0,4.4192136)"
       gradientUnits="userSpaceOnUse" />
  </defs>
  <sodipodi:namedview
     id="base"
     pagecolor="#ffffff"
     bordercolor="#666666"
     borderopacity="1.0"
     inkscape:pageopacity="0.0"
     inkscape:pageshadow="2"
     inkscape:zoom="0.49497475"
     inkscape:cx="-128.31823"
     inkscape:cy="189.0933"
     inkscape:document-units="px"
     inkscape:current-layer="layer1"
     showgrid="false"
     fit-margin-top="0"
     fit-margin-left="0"
     fit-margin-right="0"
     fit-margin-bottom="0"
     inkscape:window-width="847"
     inkscape:window-height="790"
     inkscape:window-x="82"
     inkscape:window-y="132"
     inkscape:window-maximized="0" />
  <metadata
     id="metadata3871">
    <rdf:RDF>
      <cc:Work
         rdf:about="">
        <dc:format>image/svg+xml</dc:format>
        <dc:type
           rdf:resource="http://purl.org/dc/dcmitype/StillImage" />
        <dc:title />
      </cc:Work>
    </rdf:RDF>
  </metadata>
  <g
     inkscape:label="Layer 1"
     inkscape:groupmode="layer"
     id="layer1"
     transform="translate(-175.96142,-342.68733)">
    <path
       style="fill:#febc05;fill-opacity:1;stroke:none"
       d="m 367.46875,632.65625 c -1.9967,0 -3.30603,0.0959 -4.4375,0.53125 -1.13147,0.43533 -2.08506,1.21006 -3.34375,2.46875 -0.95954,0.95953 -1.68057,1.80248 -2.25,2.96875 -0.56943,1.16627 -0.98921,2.65705 -1.28125,4.90625 -0.29204,2.2492 -0.46637,5.26042 -0.59375,9.46875 -0.12738,4.20833 -0.20582,9.61258 -0.28125,16.65625 -0.0692,6.45812 -0.0655,11.50634 0.0312,15.46875 0.0967,3.96241 0.30588,6.84457 0.6875,8.96875 0.19081,1.06209 0.40316,1.93044 0.6875,2.65625 0.28434,0.72581 0.63851,1.27829 1.03125,1.75 0.39274,0.47171 0.82774,0.85645 1.34375,1.15625 0.51601,0.2998 1.09585,0.53993 1.75,0.75 1.19982,0.38531 2.3717,0.66424 3.53125,0.84375 1.15955,0.17951 2.30542,0.24645 3.4375,0.21875 1.13208,-0.0277 2.25757,-0.16992 3.375,-0.40625 1.11743,-0.23633 2.22816,-0.55363 3.34375,-1 1.66255,-0.66522 2.68401,-1.23394 3.375,-2 0.3455,-0.38303 0.62788,-0.81295 0.84375,-1.34375 0.21587,-0.5308 0.36951,-1.14597 0.53125,-1.90625 0.30931,-1.45394 0.52209,-5.34092 0.625,-10.40625 0.10291,-5.06533 0.10546,-11.33244 0.0312,-17.53125 -0.0742,-6.19881 -0.21545,-12.33311 -0.4375,-17.1875 -0.22205,-4.85439 -0.53439,-8.40544 -0.875,-9.4375 -0.42441,-1.28598 -0.9557,-2.42196 -1.625,-3.375 -0.6693,-0.95304 -1.45307,-1.74728 -2.375,-2.375 -0.92193,-0.62772 -1.97396,-1.06496 -3.15625,-1.375 -1.18229,-0.31004 -2.51837,-0.46875 -3.96875,-0.46875 z"
       id="path4516"
       inkscape:connector-curvature="0" />
    <path
       style="fill:#febc05;fill-opacity:1;stroke:none"
       d="m 367.46875,632.65625 c 1.45038,0 2.78646,0.15871 3.96875,0.46875 1.18229,0.31004 2.23432,0.74728 3.15625,1.375 0.92193,0.62772 1.7057,1.42196 2.375,2.375 0.6693,0.95304 1.20059,2.08902 1.625,3.375 0.34061,1.03206 0.65295,4.58311 0.875,9.4375 0.22205,4.85439 0.36329,10.98869 0.4375,17.1875 0.0742,6.19881 0.0717,12.46592 -0.0312,17.53125 -0.10291,5.06533 -0.31569,8.95231 -0.625,10.40625 -0.16174,0.76028 -0.31538,1.37545 -0.53125,1.90625 -0.21587,0.5308 -0.49825,0.96072 -0.84375,1.34375 -0.69099,0.76606 -1.71245,1.33478 -3.375,2 -1.11559,0.44637 -2.22632,0.76367 -3.34375,1 -1.11743,0.23633 -2.24292,0.37855 -3.375,0.40625 -1.13208,0.0277 -2.27795,-0.0392 -3.4375,-0.21875 -1.15955,-0.17951 -2.33143,-0.45844 -3.53125,-0.84375 -0.65415,-0.21007 -1.23399,-0.4502 -1.75,-0.75 -0.51601,-0.2998 -0.95101,-0.68454 -1.34375,-1.15625 -0.39274,-0.47171 -0.74691,-1.02419 -1.03125,-1.75 -0.28434,-0.72581 -0.49669,-1.59416 -0.6875,-2.65625 -0.38162,-2.12418 -0.59076,-5.00634 -0.6875,-8.96875 -0.0967,-3.96241 -0.10041,-9.01063 -0.0312,-15.46875 0.0754,-7.04367 0.15387,-12.44792 0.28125,-16.65625 0.12738,-4.20833 0.30171,-7.21955 0.59375,-9.46875 0.29204,-2.2492 0.71182,-3.73998 1.28125,-4.90625 0.56943,-1.16627 1.29046,-2.00922 2.25,-2.96875 1.25869,-1.25869 2.21228,-2.03342 3.34375,-2.46875 1.13147,-0.43533 2.4408,-0.53125 4.4375,-0.53125 z"
       id="path4514"
       inkscape:connector-curvature="0" />
    <path
       style="fill:#febc05;fill-opacity:1;stroke:none"
       d="m 368.5625,630.5 c -1.21766,-0.0277 -2.44955,0.0716 -3.65625,0.3125 -1.2067,0.24095 -2.39358,0.62896 -3.5,1.125 -1.10642,0.49604 -2.11443,1.10621 -3.03125,1.84375 -0.91682,0.73754 -1.7371,1.59706 -2.375,2.5625 -0.39593,0.59923 -0.69859,1.25096 -0.96875,2.21875 -0.27016,0.96779 -0.49537,2.25608 -0.6875,4.03125 -0.38427,3.55034 -0.67268,9.14981 -1.03125,18.5625 -0.30458,7.99561 -0.46904,14.42326 -0.4375,19.625 0.0315,5.20174 0.25449,9.16342 0.71875,12.1875 0.23213,1.51204 0.54783,2.79183 0.90625,3.875 0.35842,1.08317 0.78447,1.98743 1.28125,2.71875 0.49678,0.73132 1.04029,1.29349 1.6875,1.75 0.64721,0.45651 1.37779,0.80378 2.1875,1.0625 1.31889,0.42141 2.74546,0.72623 4.1875,0.90625 1.44204,0.18002 2.9208,0.21361 4.375,0.15625 1.4542,-0.0574 2.86338,-0.20927 4.21875,-0.5 1.35537,-0.29073 2.6357,-0.69867 3.78125,-1.21875 0.70097,-0.31825 1.33203,-0.62609 1.875,-0.96875 0.54297,-0.34266 1.00205,-0.73485 1.40625,-1.21875 0.4042,-0.4839 0.74658,-1.07054 1.03125,-1.8125 0.28467,-0.74196 0.50312,-1.63315 0.6875,-2.75 0.36876,-2.2337 0.57325,-5.34704 0.65625,-9.78125 0.083,-4.43421 0.0489,-10.18066 0,-17.75 -0.0435,-6.74709 -0.1035,-12.02648 -0.25,-16.1875 -0.1465,-4.16102 -0.37678,-7.22002 -0.75,-9.5625 -0.37322,-2.34248 -0.87005,-3.95853 -1.59375,-5.25 -0.7237,-1.29147 -1.67706,-2.242 -2.875,-3.25 -1.04336,-0.87793 -2.25895,-1.55593 -3.59375,-2 -1.3348,-0.44407 -2.78881,-0.65422 -4.25,-0.6875 z"
       id="path4512"
       inkscape:connector-curvature="0" />
    <path
       style="fill:#febc05;fill-opacity:1;stroke:none"
       d="m 368.5625,630.5 c 1.46119,0.0333 2.9152,0.24343 4.25,0.6875 1.3348,0.44407 2.55039,1.12207 3.59375,2 1.19794,1.008 2.1513,1.95853 2.875,3.25 0.7237,1.29147 1.22053,2.90752 1.59375,5.25 0.37322,2.34248 0.6035,5.40148 0.75,9.5625 0.1465,4.16102 0.20646,9.44041 0.25,16.1875 0.0489,7.56934 0.083,13.31579 0,17.75 -0.083,4.43421 -0.28749,7.54755 -0.65625,9.78125 -0.18438,1.11685 -0.40283,2.00804 -0.6875,2.75 -0.28467,0.74196 -0.62705,1.3286 -1.03125,1.8125 -0.4042,0.4839 -0.86328,0.87609 -1.40625,1.21875 -0.54297,0.34266 -1.17403,0.6505 -1.875,0.96875 -1.14555,0.52008 -2.42588,0.92802 -3.78125,1.21875 -1.35537,0.29073 -2.76455,0.44264 -4.21875,0.5 -1.4542,0.0574 -2.93296,0.0238 -4.375,-0.15625 -1.44204,-0.18002 -2.86861,-0.48484 -4.1875,-0.90625 -0.80971,-0.25872 -1.54029,-0.60599 -2.1875,-1.0625 -0.64721,-0.45651 -1.19072,-1.01868 -1.6875,-1.75 -0.49678,-0.73132 -0.92283,-1.63558 -1.28125,-2.71875 -0.35842,-1.08317 -0.67412,-2.36296 -0.90625,-3.875 -0.46426,-3.02408 -0.68721,-6.98576 -0.71875,-12.1875 -0.0315,-5.20174 0.13292,-11.62939 0.4375,-19.625 0.35857,-9.41269 0.64698,-15.01216 1.03125,-18.5625 0.19213,-1.77517 0.41734,-3.06346 0.6875,-4.03125 0.27016,-0.96779 0.57282,-1.61952 0.96875,-2.21875 0.6379,-0.96544 1.45818,-1.82496 2.375,-2.5625 0.91682,-0.73754 1.92483,-1.34771 3.03125,-1.84375 1.10642,-0.49604 2.2933,-0.88405 3.5,-1.125 1.2067,-0.24095 2.43859,-0.34023 3.65625,-0.3125 z"
       id="path4510"
       inkscape:connector-curvature="0" />
    <path
       style="fill:#febc05;fill-opacity:1;stroke:none"
       d="m 433.03125,623.59375 c -1.34389,-0.0269 -2.70834,0.20476 -4.03125,0.71875 -1.32291,0.51399 -2.60428,1.31036 -3.78125,2.34375 -1.0154,0.89154 -1.85386,1.80668 -2.5,2.78125 -0.64614,0.97457 -1.10175,1.98477 -1.375,3.03125 -0.27325,1.04648 -0.35326,2.14274 -0.25,3.25 0.10326,1.10726 0.39161,2.24933 0.875,3.40625 0.51113,1.22331 2.04028,3.76491 4.125,7 2.08472,3.23509 4.73355,7.1575 7.5,11.125 2.76645,3.9675 5.66243,7.98572 8.21875,11.40625 2.55632,3.42053 4.76442,6.24955 6.21875,7.84375 2.05123,2.24851 3.90777,4.0419 5.625,5.4375 1.71723,1.3956 3.31545,2.36886 4.84375,2.96875 0.76415,0.29994 1.50589,0.51326 2.25,0.625 0.74411,0.11174 1.47654,0.13181 2.21875,0.0625 1.48441,-0.13862 2.97692,-0.61756 4.5625,-1.4375 1.03854,-0.53705 1.93027,-1.13586 2.6875,-1.8125 0.75723,-0.67664 1.38463,-1.44069 1.875,-2.28125 0.49037,-0.84056 0.85579,-1.78371 1.09375,-2.8125 0.23796,-1.02879 0.34375,-2.13365 0.34375,-3.375 0,-0.96579 -0.0348,-1.75445 -0.15625,-2.46875 -0.12143,-0.7143 -0.30754,-1.36957 -0.65625,-2.03125 -0.69741,-1.32337 -1.97716,-2.72505 -4.21875,-5.03125 -1.38589,-1.42584 -3.87507,-4.49807 -6.78125,-8.28125 -2.90618,-3.78318 -6.22935,-8.27732 -9.25,-12.59375 -3.02065,-4.31643 -6.03624,-8.47031 -8.5,-11.6875 -2.46376,-3.21719 -4.37571,-5.49769 -5.09375,-6.0625 -0.86638,-0.6815 -1.79822,-1.20685 -2.78125,-1.5625 -0.98303,-0.35565 -2.01726,-0.5416 -3.0625,-0.5625 z"
       id="path4508"
       inkscape:connector-curvature="0" />
    <path
       style="fill:#febc05;fill-opacity:1;stroke:none"
       d="m 433.03125,623.59375 c 1.04524,0.0209 2.07947,0.20685 3.0625,0.5625 0.98303,0.35565 1.91487,0.881 2.78125,1.5625 0.71804,0.56481 2.62999,2.84531 5.09375,6.0625 2.46376,3.21719 5.47935,7.37107 8.5,11.6875 3.02065,4.31643 6.34382,8.81057 9.25,12.59375 2.90618,3.78318 5.39536,6.85541 6.78125,8.28125 2.24159,2.3062 3.52134,3.70788 4.21875,5.03125 0.34871,0.66168 0.53482,1.31695 0.65625,2.03125 0.12143,0.7143 0.15625,1.50296 0.15625,2.46875 0,1.24135 -0.10579,2.34621 -0.34375,3.375 -0.23796,1.02879 -0.60338,1.97194 -1.09375,2.8125 -0.49037,0.84056 -1.11777,1.60461 -1.875,2.28125 -0.75723,0.67664 -1.64896,1.27545 -2.6875,1.8125 -1.58558,0.81994 -3.07809,1.29888 -4.5625,1.4375 -0.74221,0.0693 -1.47464,0.0492 -2.21875,-0.0625 -0.74411,-0.11174 -1.48585,-0.32506 -2.25,-0.625 -1.5283,-0.59989 -3.12652,-1.57315 -4.84375,-2.96875 -1.71723,-1.3956 -3.57377,-3.18899 -5.625,-5.4375 -1.45433,-1.5942 -3.66243,-4.42322 -6.21875,-7.84375 -2.55632,-3.42053 -5.4523,-7.43875 -8.21875,-11.40625 -2.76645,-3.9675 -5.41528,-7.88991 -7.5,-11.125 -2.08472,-3.23509 -3.61387,-5.77669 -4.125,-7 -0.48339,-1.15692 -0.77174,-2.29899 -0.875,-3.40625 -0.10326,-1.10726 -0.0233,-2.20352 0.25,-3.25 0.27325,-1.04648 0.72886,-2.05668 1.375,-3.03125 0.64614,-0.97457 1.4846,-1.88971 2.5,-2.78125 1.17697,-1.03339 2.45834,-1.82976 3.78125,-2.34375 1.32291,-0.51399 2.68736,-0.74562 4.03125,-0.71875 z"
       id="path4506"
       inkscape:connector-curvature="0" />
    <path
       style="fill:#febc05;fill-opacity:1;stroke:none"
       d="m 432.53125,621.65625 c -0.99649,0 -1.9847,0.11199 -2.9375,0.34375 -0.9528,0.23176 -1.87036,0.56983 -2.75,1 -0.87964,0.43017 -1.69172,0.96726 -2.46875,1.5625 -0.77703,0.59524 -1.51129,1.2418 -2.15625,1.96875 -0.64496,0.72695 -1.20407,1.51843 -1.6875,2.34375 -0.48343,0.82532 -0.89505,1.70342 -1.1875,2.59375 -0.29245,0.89033 -0.4905,1.79675 -0.5625,2.71875 -0.072,0.922 -0.0216,1.86093 0.15625,2.78125 0.1709,0.88412 1.43363,3.25802 3.34375,6.46875 1.91012,3.21073 4.48245,7.23819 7.25,11.4375 2.76755,4.19931 5.72556,8.55639 8.46875,12.40625 2.74319,3.84986 5.25671,7.21261 7.09375,9.375 1.28493,1.5125 2.91912,3.19219 4.5,4.6875 1.58088,1.49531 3.10843,2.80625 4.21875,3.5625 0.82938,0.56491 1.69523,1.01857 2.5625,1.40625 0.86727,0.38768 1.73853,0.69301 2.625,0.90625 0.88647,0.21324 1.76926,0.3334 2.65625,0.375 0.88699,0.0416 1.78742,0.002 2.65625,-0.125 0.86883,-0.12724 1.73051,-0.33171 2.5625,-0.625 0.83199,-0.29329 1.62979,-0.66845 2.40625,-1.125 0.77646,-0.45655 1.51649,-0.97673 2.21875,-1.59375 0.70226,-0.61702 1.35938,-1.31906 1.96875,-2.09375 0.76395,-0.9712 1.30036,-2.01434 1.625,-3.28125 0.32464,-1.26691 0.4375,-2.75757 0.4375,-4.71875 0,-1.29564 -0.0111,-2.31669 -0.125,-3.1875 -0.11391,-0.87081 -0.31512,-1.58723 -0.71875,-2.375 -0.40363,-0.78777 -1.00585,-1.64099 -1.875,-2.6875 -0.86915,-1.04651 -2.02076,-2.29047 -3.53125,-3.9375 -1.71875,-1.87411 -4.46406,-5.29316 -7.5,-9.28125 -3.03594,-3.98809 -6.3625,-8.54521 -9.25,-12.71875 -2.74105,-3.96186 -4.95861,-7.08332 -6.84375,-9.53125 -1.88514,-2.44793 -3.43206,-4.21703 -4.84375,-5.5 -1.41169,-1.28297 -2.67929,-2.0955 -4,-2.5625 -1.32071,-0.467 -2.70031,-0.59375 -4.3125,-0.59375 z"
       id="path4504"
       inkscape:connector-curvature="0" />
    <path
       style="fill:#febc05;fill-opacity:1;stroke:none"
       d="m 432.53125,621.65625 c 1.61219,0 2.99179,0.12675 4.3125,0.59375 1.32071,0.467 2.58831,1.27953 4,2.5625 1.41169,1.28297 2.95861,3.05207 4.84375,5.5 1.88514,2.44793 4.1027,5.56939 6.84375,9.53125 2.8875,4.17354 6.21406,8.73066 9.25,12.71875 3.03594,3.98809 5.78125,7.40714 7.5,9.28125 1.51049,1.64703 2.6621,2.89099 3.53125,3.9375 0.86915,1.04651 1.47137,1.89973 1.875,2.6875 0.40363,0.78777 0.60484,1.50419 0.71875,2.375 0.11391,0.87081 0.125,1.89186 0.125,3.1875 0,1.96118 -0.11286,3.45184 -0.4375,4.71875 -0.32464,1.26691 -0.86105,2.31005 -1.625,3.28125 -0.60937,0.77469 -1.26649,1.47673 -1.96875,2.09375 -0.70226,0.61702 -1.44229,1.1372 -2.21875,1.59375 -0.77646,0.45655 -1.57426,0.83171 -2.40625,1.125 -0.83199,0.29329 -1.69367,0.49776 -2.5625,0.625 -0.86883,0.12724 -1.76926,0.1666 -2.65625,0.125 -0.88699,-0.0416 -1.76978,-0.16176 -2.65625,-0.375 -0.88647,-0.21324 -1.75773,-0.51857 -2.625,-0.90625 -0.86727,-0.38768 -1.73312,-0.84134 -2.5625,-1.40625 -1.11032,-0.75625 -2.63787,-2.06719 -4.21875,-3.5625 -1.58088,-1.49531 -3.21507,-3.175 -4.5,-4.6875 -1.83704,-2.16239 -4.35056,-5.52514 -7.09375,-9.375 -2.74319,-3.84986 -5.7012,-8.20694 -8.46875,-12.40625 -2.76755,-4.19931 -5.33988,-8.22677 -7.25,-11.4375 -1.91012,-3.21073 -3.17285,-5.58463 -3.34375,-6.46875 -0.17789,-0.92032 -0.22825,-1.85925 -0.15625,-2.78125 0.072,-0.922 0.27005,-1.82842 0.5625,-2.71875 0.29245,-0.89033 0.70407,-1.76843 1.1875,-2.59375 0.48343,-0.82532 1.04254,-1.6168 1.6875,-2.34375 0.64496,-0.72695 1.37922,-1.37351 2.15625,-1.96875 0.77703,-0.59524 1.58911,-1.13233 2.46875,-1.5625 0.87964,-0.43017 1.7972,-0.76824 2.75,-1 0.9528,-0.23176 1.94101,-0.34375 2.9375,-0.34375 z"
       id="path4502"
       inkscape:connector-curvature="0" />
    <path
       style="fill:#febc05;fill-opacity:1;stroke:none"
       d="m 293.1875,616.65625 c -1.16986,0.035 -2.17138,0.14918 -3.28125,0.59375 -1.10987,0.44457 -2.30974,1.2099 -3.9375,2.5 -1.62776,1.2901 -3.6827,3.11592 -6.40625,5.6875 -2.72355,2.57158 -6.13404,5.8985 -10.53125,10.1875 -8.25,8.04697 -18.25216,17.5846 -22.25,21.21875 -1.99892,1.81708 -3.92476,3.80564 -5.4375,5.5625 -1.51274,1.75686 -2.61238,3.28201 -2.90625,4.125 -0.25086,0.71962 -0.4029,1.44256 -0.46875,2.1875 -0.0659,0.74494 -0.0415,1.5052 0.0625,2.25 0.20808,1.48961 0.73441,2.94495 1.53125,4.28125 0.79684,1.3363 1.86044,2.55192 3.125,3.53125 0.63228,0.48966 1.33598,0.91902 2.0625,1.28125 0.72652,0.36223 1.47563,0.66566 2.28125,0.875 0.77416,0.20117 1.57457,0.2713 2.40625,0.25 0.83168,-0.0213 1.70369,-0.13062 2.59375,-0.375 0.89006,-0.24438 1.80072,-0.62567 2.75,-1.09375 0.94928,-0.46808 1.92814,-1.02635 2.9375,-1.71875 1.01511,-0.69634 4.46051,-3.79107 9.15625,-8.1875 4.69574,-4.39643 10.6418,-10.09458 16.75,-16.0625 l 22.21875,-21.6875 -0.5625,-4.9375 c -0.18706,-1.6596 -0.57036,-3.14488 -1.15625,-4.4375 -0.58589,-1.29262 -1.36236,-2.38756 -2.3125,-3.28125 -0.95014,-0.89369 -2.06395,-1.59968 -3.34375,-2.0625 -1.2798,-0.46282 -2.73762,-0.6875 -4.3125,-0.6875 -0.34241,0 -0.65679,-0.009 -0.96875,0 z"
       id="path4500"
       inkscape:connector-curvature="0" />
    <path
       style="fill:#febc05;fill-opacity:1;stroke:none"
       d="m 293.1875,616.65625 c 0.31196,-0.009 0.62634,0 0.96875,0 1.57488,0 3.0327,0.22468 4.3125,0.6875 1.2798,0.46282 2.39361,1.16881 3.34375,2.0625 0.95014,0.89369 1.72661,1.98863 2.3125,3.28125 0.58589,1.29262 0.96919,2.7779 1.15625,4.4375 l 0.5625,4.9375 L 283.625,653.75 c -6.1082,5.96792 -12.05426,11.66607 -16.75,16.0625 -4.69574,4.39643 -8.14114,7.49116 -9.15625,8.1875 -1.00936,0.6924 -1.98822,1.25067 -2.9375,1.71875 -0.94928,0.46808 -1.85994,0.84937 -2.75,1.09375 -0.89006,0.24438 -1.76207,0.3537 -2.59375,0.375 -0.83168,0.0213 -1.63209,-0.0488 -2.40625,-0.25 -0.80562,-0.20934 -1.55473,-0.51277 -2.28125,-0.875 -0.72652,-0.36223 -1.43022,-0.79159 -2.0625,-1.28125 -1.26456,-0.97933 -2.32816,-2.19495 -3.125,-3.53125 -0.79684,-1.3363 -1.32317,-2.79164 -1.53125,-4.28125 -0.10404,-0.7448 -0.12835,-1.50506 -0.0625,-2.25 0.0659,-0.74494 0.21789,-1.46788 0.46875,-2.1875 0.29387,-0.84299 1.39351,-2.36814 2.90625,-4.125 1.51274,-1.75686 3.43858,-3.74542 5.4375,-5.5625 3.99784,-3.63415 14,-13.17178 22.25,-21.21875 4.39721,-4.289 7.8077,-7.61592 10.53125,-10.1875 2.72355,-2.57158 4.77849,-4.3974 6.40625,-5.6875 1.62776,-1.2901 2.82763,-2.05543 3.9375,-2.5 1.10987,-0.44457 2.11139,-0.55877 3.28125,-0.59375 z"
       id="path4498"
       inkscape:connector-curvature="0" />
    <path
       style="fill:#febc05;fill-opacity:1;stroke:none"
       d="m 293.21875,614.625 c -1.29898,0.0325 -2.56324,0.18808 -3.71875,0.46875 -1.15551,0.28067 -2.20226,0.68637 -3,1.21875 -1.35988,0.90753 -8.99375,8.01185 -16.96875,15.78125 -7.975,7.76941 -18.61,17.97647 -23.65625,22.6875 -2.52023,2.35281 -4.50739,4.31084 -6.03125,6.03125 -1.52386,1.72041 -2.57182,3.19292 -3.25,4.59375 -0.33909,0.70041 -0.59407,1.38333 -0.75,2.0625 -0.15593,0.67917 -0.22715,1.36547 -0.21875,2.0625 0.0168,1.39406 0.34516,2.86238 0.90625,4.5625 0.29655,0.89855 0.81338,1.82653 1.46875,2.75 0.65537,0.92347 1.46308,1.83314 2.34375,2.65625 0.88067,0.82311 1.84003,1.55879 2.8125,2.15625 0.97247,0.59746 1.94425,1.06598 2.875,1.3125 0.90183,0.23885 1.92142,0.32586 2.96875,0.3125 1.04733,-0.0134 2.14631,-0.12814 3.25,-0.375 1.10369,-0.24686 2.21032,-0.60087 3.28125,-1.0625 1.07093,-0.46163 2.08222,-1.02982 3.03125,-1.6875 1.02576,-0.71086 4.48108,-3.8106 9.1875,-8.21875 4.70642,-4.40815 10.66395,-10.12471 16.78125,-16.09375 10.84096,-10.57822 16.42727,-16.03903 19.34375,-19.40625 1.45824,-1.68361 2.25705,-2.85453 2.71875,-3.875 0.4617,-1.02047 0.56595,-1.88292 0.6875,-3 0.1436,-1.31966 0.15215,-2.58585 0,-3.78125 -0.15215,-1.1954 -0.4599,-2.33717 -0.90625,-3.40625 -0.44635,-1.06908 -1.04226,-2.0593 -1.78125,-3 -0.73899,-0.9407 -1.62618,-1.81475 -2.65625,-2.625 -0.94129,-0.74042 -2.28566,-1.29967 -3.8125,-1.65625 -1.52684,-0.35658 -3.23613,-0.51047 -4.90625,-0.46875 z"
       id="path4496"
       inkscape:connector-curvature="0" />
    <path
       style="fill:#febc05;fill-opacity:1;stroke:none"
       d="m 293.21875,614.625 c 1.67012,-0.0417 3.37941,0.11217 4.90625,0.46875 1.52684,0.35658 2.87121,0.91583 3.8125,1.65625 1.03007,0.81025 1.91726,1.6843 2.65625,2.625 0.73899,0.9407 1.3349,1.93092 1.78125,3 0.44635,1.06908 0.7541,2.21085 0.90625,3.40625 0.15215,1.1954 0.1436,2.46159 0,3.78125 -0.12155,1.11708 -0.2258,1.97953 -0.6875,3 -0.4617,1.02047 -1.26051,2.19139 -2.71875,3.875 -2.91648,3.36722 -8.50279,8.82803 -19.34375,19.40625 -6.1173,5.96904 -12.07483,11.6856 -16.78125,16.09375 -4.70642,4.40815 -8.16174,7.50789 -9.1875,8.21875 -0.94903,0.65768 -1.96032,1.22587 -3.03125,1.6875 -1.07093,0.46163 -2.17756,0.81564 -3.28125,1.0625 -1.10369,0.24686 -2.20267,0.36164 -3.25,0.375 -1.04733,0.0134 -2.06692,-0.0737 -2.96875,-0.3125 -0.93075,-0.24652 -1.90253,-0.71504 -2.875,-1.3125 -0.97247,-0.59746 -1.93183,-1.33314 -2.8125,-2.15625 -0.88067,-0.82311 -1.68838,-1.73278 -2.34375,-2.65625 -0.65537,-0.92347 -1.1722,-1.85145 -1.46875,-2.75 -0.56109,-1.70012 -0.88945,-3.16844 -0.90625,-4.5625 -0.008,-0.69703 0.0628,-1.38333 0.21875,-2.0625 0.15593,-0.67917 0.41091,-1.36209 0.75,-2.0625 0.67818,-1.40083 1.72614,-2.87334 3.25,-4.59375 1.52386,-1.72041 3.51102,-3.67844 6.03125,-6.03125 5.04625,-4.71103 15.68125,-14.91809 23.65625,-22.6875 7.975,-7.7694 15.60887,-14.87372 16.96875,-15.78125 0.79774,-0.53238 1.84449,-0.93808 3,-1.21875 1.15551,-0.28067 2.41977,-0.4363 3.71875,-0.46875 z"
       id="path4494"
       inkscape:connector-curvature="0" />
    <path
       style="fill:#febc05;fill-opacity:1;stroke:none"
       d="m 472.40625,576 c -0.72215,0.0145 -1.38548,0.11289 -2,0.28125 -0.61452,0.16836 -1.166,0.40706 -1.71875,0.71875 -1.1055,0.62338 -2.14757,1.52257 -3.28125,2.65625 -0.93429,0.93429 -1.65521,2.05565 -2.15625,3.28125 -0.50104,1.2256 -0.78539,2.54636 -0.84375,3.875 -0.0584,1.32864 0.10627,2.66284 0.5,3.90625 0.39373,1.24341 1.01975,2.4051 1.875,3.375 0.47696,0.5409 1.86932,1.56421 3.875,2.90625 2.00568,1.34204 4.62062,2.98491 7.53125,4.75 5.82126,3.53018 12.83274,7.54625 18.53125,10.5 2.64173,1.36931 5.15764,2.44534 7.5,3.25 2.34236,0.80466 4.53124,1.32431 6.5625,1.5625 2.03126,0.23819 3.88532,0.20509 5.59375,-0.125 1.70843,-0.33009 3.25113,-0.94356 4.625,-1.84375 0.74585,-0.4887 1.44235,-1.21201 2.03125,-2.0625 0.5889,-0.85049 1.09285,-1.85102 1.46875,-2.90625 0.3759,-1.05523 0.61188,-2.1471 0.71875,-3.25 0.10687,-1.1029 0.062,-2.19398 -0.15625,-3.1875 -0.26701,-1.21569 -0.78546,-2.39591 -1.65625,-3.5625 -0.87079,-1.16659 -2.07736,-2.3155 -3.71875,-3.5625 -1.64139,-1.247 -3.70244,-2.57434 -6.28125,-4.03125 -2.57881,-1.45691 -5.69196,-3.04743 -9.375,-4.84375 -8.57577,-4.18264 -14.77699,-7.14293 -19.4375,-9.03125 -2.33026,-0.94416 -4.27445,-1.62487 -5.9375,-2.0625 -1.66305,-0.43763 -3.04641,-0.61795 -4.25,-0.59375 z"
       id="path4492"
       inkscape:connector-curvature="0" />
    <path
       style="fill:#febc05;fill-opacity:1;stroke:none"
       d="m 472.40625,576 c 1.20359,-0.0242 2.58695,0.15612 4.25,0.59375 1.66305,0.43763 3.60724,1.11834 5.9375,2.0625 4.66051,1.88832 10.86173,4.84861 19.4375,9.03125 3.68304,1.79632 6.79619,3.38684 9.375,4.84375 2.57881,1.45691 4.63986,2.78425 6.28125,4.03125 1.64139,1.247 2.84796,2.39591 3.71875,3.5625 0.87079,1.16659 1.38924,2.34681 1.65625,3.5625 0.21821,0.99352 0.26312,2.0846 0.15625,3.1875 -0.10687,1.1029 -0.34285,2.19477 -0.71875,3.25 -0.3759,1.05523 -0.87985,2.05576 -1.46875,2.90625 -0.5889,0.85049 -1.2854,1.5738 -2.03125,2.0625 -1.37387,0.90019 -2.91657,1.51366 -4.625,1.84375 -1.70843,0.33009 -3.56249,0.36319 -5.59375,0.125 -2.03126,-0.23819 -4.22014,-0.75784 -6.5625,-1.5625 -2.34236,-0.80466 -4.85827,-1.88069 -7.5,-3.25 -5.69851,-2.95375 -12.70999,-6.96982 -18.53125,-10.5 -2.91063,-1.76509 -5.52557,-3.40796 -7.53125,-4.75 -2.00568,-1.34204 -3.39804,-2.36535 -3.875,-2.90625 -0.85525,-0.9699 -1.48127,-2.13159 -1.875,-3.375 -0.39373,-1.24341 -0.55836,-2.57761 -0.5,-3.90625 0.0584,-1.32864 0.34271,-2.6494 0.84375,-3.875 0.50104,-1.2256 1.22196,-2.34696 2.15625,-3.28125 1.13368,-1.13368 2.17575,-2.03287 3.28125,-2.65625 0.55275,-0.31169 1.10423,-0.55039 1.71875,-0.71875 0.61452,-0.16836 1.27785,-0.26673 2,-0.28125 z"
       id="path4490"
       inkscape:connector-curvature="0" />
    <path
       style="fill:#febc05;fill-opacity:1;stroke:none"
       d="m 472.875,573.84375 c -1.5906,0.0599 -3.0041,0.48413 -4.6875,1.1875 -1.32288,0.55273 -2.44044,1.20411 -3.40625,1.96875 -0.96581,0.76464 -1.77994,1.61719 -2.40625,2.625 -0.62631,1.00781 -1.07063,2.15527 -1.375,3.4375 -0.30437,1.28223 -0.46875,2.72459 -0.46875,4.3125 0,2.42445 0.11044,3.88736 0.5625,5.09375 0.22603,0.6032 0.5289,1.12296 0.96875,1.6875 0.43985,0.56454 0.99786,1.17189 1.71875,1.875 0.98348,0.95924 3.38376,2.60086 6.53125,4.59375 3.14749,1.99289 7.04415,4.33469 11.0625,6.625 4.01835,2.29031 8.15394,4.52352 11.75,6.375 3.59606,1.85148 6.65062,3.32359 8.53125,4 1.77897,0.63985 3.40838,1.09319 4.90625,1.40625 1.49787,0.31306 2.88516,0.48518 4.21875,0.46875 1.33359,-0.0164 2.58889,-0.21388 3.875,-0.5625 1.28611,-0.34862 2.58206,-0.84774 3.9375,-1.53125 1.8309,-0.92327 3.01862,-1.6936 3.875,-2.65625 0.42819,-0.48132 0.78277,-1.02345 1.09375,-1.65625 0.31098,-0.6328 0.56571,-1.34005 0.84375,-2.21875 0.45956,-1.45238 0.79718,-2.81777 0.9375,-4.09375 0.14032,-1.27598 0.0915,-2.4621 -0.15625,-3.625 -0.24777,-1.1629 -0.70154,-2.2931 -1.40625,-3.40625 -0.70471,-1.11315 -1.67577,-2.21704 -2.90625,-3.34375 -1.23048,-1.12671 -2.7374,-2.26515 -4.5625,-3.46875 -1.8251,-1.2036 -3.94894,-2.46869 -6.4375,-3.8125 -4.97712,-2.68763 -11.36222,-5.71535 -19.40625,-9.34375 -4.89141,-2.20637 -8.41808,-3.73823 -11.15625,-4.6875 -1.36908,-0.47463 -2.54459,-0.79429 -3.59375,-1 -1.04916,-0.20571 -1.96892,-0.28297 -2.84375,-0.25 z"
       id="path4488"
       inkscape:connector-curvature="0" />
    <path
       style="fill:#febc05;fill-opacity:1;stroke:none"
       d="m 472.875,573.84375 c 0.87483,-0.033 1.79459,0.0443 2.84375,0.25 1.04916,0.20571 2.22467,0.52537 3.59375,1 2.73817,0.94927 6.26484,2.48113 11.15625,4.6875 8.04403,3.6284 14.42913,6.65612 19.40625,9.34375 2.48856,1.34381 4.6124,2.6089 6.4375,3.8125 1.8251,1.2036 3.33202,2.34204 4.5625,3.46875 1.23048,1.12671 2.20154,2.2306 2.90625,3.34375 0.70471,1.11315 1.15848,2.24335 1.40625,3.40625 0.24777,1.1629 0.29657,2.34902 0.15625,3.625 -0.14032,1.27598 -0.47794,2.64137 -0.9375,4.09375 -0.27804,0.8787 -0.53277,1.58595 -0.84375,2.21875 -0.31098,0.6328 -0.66556,1.17493 -1.09375,1.65625 -0.85638,0.96265 -2.0441,1.73298 -3.875,2.65625 -1.35544,0.68351 -2.65139,1.18263 -3.9375,1.53125 -1.28611,0.34862 -2.54141,0.54607 -3.875,0.5625 -1.33359,0.0164 -2.72088,-0.15569 -4.21875,-0.46875 -1.49787,-0.31306 -3.12728,-0.7664 -4.90625,-1.40625 -1.88063,-0.67641 -4.93519,-2.14852 -8.53125,-4 -3.59606,-1.85148 -7.73165,-4.08469 -11.75,-6.375 -4.01835,-2.29031 -7.91501,-4.63211 -11.0625,-6.625 -3.14749,-1.99289 -5.54777,-3.63451 -6.53125,-4.59375 -0.72089,-0.70311 -1.2789,-1.31046 -1.71875,-1.875 -0.43985,-0.56454 -0.74272,-1.0843 -0.96875,-1.6875 -0.45206,-1.20639 -0.5625,-2.6693 -0.5625,-5.09375 0,-1.58791 0.16438,-3.03027 0.46875,-4.3125 0.30437,-1.28223 0.74869,-2.42969 1.375,-3.4375 0.62631,-1.00781 1.44044,-1.86036 2.40625,-2.625 0.96581,-0.76464 2.08337,-1.41602 3.40625,-1.96875 1.6834,-0.70337 3.0969,-1.1276 4.6875,-1.1875 z"
       id="path4486"
       inkscape:connector-curvature="0" />
    <path
       style="fill:#febc05;fill-opacity:1;stroke:none"
       d="m 256.9375,568.875 c -0.8825,0.0208 -1.83563,0.1766 -3.125,0.5625 -1.28937,0.3859 -2.89494,0.97927 -5.09375,1.9375 -4.39762,1.91646 -11.13673,5.20736 -22.1875,10.65625 -7.24125,3.57049 -12.86102,6.37978 -17.21875,8.6875 -4.35773,2.30772 -7.43531,4.10702 -9.625,5.65625 -1.09484,0.77461 -1.96927,1.47671 -2.65625,2.15625 -0.68698,0.67954 -1.19395,1.32124 -1.5625,1.96875 -0.36855,0.64751 -0.61044,1.32149 -0.75,2 -0.13956,0.67851 -0.1875,1.3837 -0.1875,2.15625 0,0.79184 0.12007,1.56855 0.34375,2.34375 0.22368,0.7752 0.55733,1.55184 0.96875,2.28125 0.82285,1.45882 1.98547,2.77423 3.34375,3.875 1.35828,1.10077 2.92496,1.95921 4.53125,2.46875 0.80315,0.25477 1.59499,0.43676 2.40625,0.5 0.81126,0.0632 1.62281,0.0324 2.40625,-0.125 1.375,-0.27632 14.73619,-6.50704 29.6875,-13.84375 7.53567,-3.69781 13.25058,-6.53152 17.5625,-8.8125 4.31192,-2.28098 7.22098,-4.02621 9.15625,-5.5625 0.96763,-0.76814 1.68645,-1.47951 2.21875,-2.1875 0.5323,-0.70799 0.89089,-1.39314 1.09375,-2.125 0.20286,-0.73186 0.2707,-1.504 0.25,-2.34375 -0.0207,-0.83975 -0.14288,-1.7496 -0.28125,-2.78125 -0.18135,-1.35208 -0.5436,-2.57099 -1.0625,-3.65625 -0.5189,-1.08526 -1.19805,-2.04762 -2.03125,-2.84375 -0.8332,-0.79613 -1.81323,-1.45283 -2.9375,-1.9375 -1.12427,-0.48467 -2.38916,-0.78659 -3.78125,-0.9375 -0.50147,-0.0543 -0.96447,-0.10565 -1.46875,-0.0937 z"
       id="path4484"
       inkscape:connector-curvature="0" />
    <path
       style="fill:#febc05;fill-opacity:1;stroke:none"
       d="m 256.9375,568.875 c 0.50428,-0.0119 0.96728,0.0394 1.46875,0.0937 1.39209,0.15091 2.65698,0.45283 3.78125,0.9375 1.12427,0.48467 2.1043,1.14137 2.9375,1.9375 0.8332,0.79613 1.51235,1.75849 2.03125,2.84375 0.5189,1.08526 0.88115,2.30417 1.0625,3.65625 0.13837,1.03165 0.26055,1.9415 0.28125,2.78125 0.0207,0.83975 -0.0471,1.61189 -0.25,2.34375 -0.20286,0.73186 -0.56145,1.41701 -1.09375,2.125 -0.5323,0.70799 -1.25112,1.41936 -2.21875,2.1875 -1.93527,1.53629 -4.84433,3.28152 -9.15625,5.5625 -4.31192,2.28098 -10.02683,5.11469 -17.5625,8.8125 -14.95131,7.33671 -28.3125,13.56743 -29.6875,13.84375 -0.78344,0.15744 -1.59499,0.18824 -2.40625,0.125 -0.81126,-0.0632 -1.6031,-0.24523 -2.40625,-0.5 -1.60629,-0.50954 -3.17297,-1.36798 -4.53125,-2.46875 -1.35828,-1.10077 -2.5209,-2.41618 -3.34375,-3.875 -0.41142,-0.72941 -0.74507,-1.50605 -0.96875,-2.28125 -0.22368,-0.7752 -0.34375,-1.55191 -0.34375,-2.34375 0,-0.77255 0.0479,-1.47774 0.1875,-2.15625 0.13956,-0.67851 0.38145,-1.35249 0.75,-2 0.36855,-0.64751 0.87552,-1.28921 1.5625,-1.96875 0.68698,-0.67954 1.56141,-1.38164 2.65625,-2.15625 2.18969,-1.54923 5.26727,-3.34853 9.625,-5.65625 4.35773,-2.30772 9.9775,-5.11701 17.21875,-8.6875 11.05077,-5.44889 17.78988,-8.73979 22.1875,-10.65625 2.19881,-0.95823 3.80438,-1.5516 5.09375,-1.9375 1.28937,-0.3859 2.2425,-0.54174 3.125,-0.5625 z"
       id="path4482"
       inkscape:connector-curvature="0" />
    <path
       style="fill:#febc05;fill-opacity:1;stroke:none"
       d="m 257.5,566.65625 c -0.63716,0 -2.03364,0.41658 -4.03125,1.15625 -1.99761,0.73967 -4.57398,1.77821 -7.53125,3.0625 -5.91454,2.56858 -13.37028,6.04826 -20.71875,9.625 -7.34847,3.57674 -14.6114,7.25677 -20.1875,10.28125 -2.78805,1.51224 -5.13122,2.85591 -6.875,3.9375 -1.74378,1.08159 -2.88879,1.9191 -3.1875,2.375 -0.63667,0.97168 -1.11093,1.98531 -1.46875,3.03125 -0.35782,1.04594 -0.5904,2.11528 -0.6875,3.1875 -0.0971,1.07222 -0.083,2.13699 0.0625,3.1875 0.14549,1.05051 0.41129,2.08168 0.78125,3.0625 0.36996,0.98082 0.86121,1.9181 1.4375,2.78125 0.57629,0.86315 1.2355,1.64626 2,2.34375 0.7645,0.69749 1.62792,1.2974 2.5625,1.78125 0.93458,0.48385 1.94472,0.87153 3.03125,1.09375 1.77411,0.36282 4.69989,0.46015 6.5,0.25 0.90005,-0.10507 4.76217,-1.70839 10.25,-4.1875 5.48783,-2.47911 12.60137,-5.83401 20.03125,-9.5 11.44105,-5.64514 18.28514,-9.12938 22.46875,-11.53125 2.0918,-1.20093 3.517,-2.12644 4.53125,-2.9375 1.01425,-0.81106 1.60336,-1.48568 2.03125,-2.1875 0.57204,-0.93826 1.01914,-2.04142 1.34375,-3.21875 0.32461,-1.17733 0.52538,-2.43188 0.59375,-3.6875 0.0684,-1.25562 0.009,-2.51436 -0.1875,-3.6875 -0.19667,-1.17314 -0.52947,-2.25762 -1,-3.1875 -0.46878,-0.92643 -1.14877,-1.85461 -2,-2.6875 -0.85123,-0.83289 -1.85653,-1.57145 -2.9375,-2.21875 -1.08097,-0.6473 -2.24824,-1.19283 -3.40625,-1.5625 -1.15801,-0.36967 -2.32391,-0.5625 -3.40625,-0.5625 z"
       id="path4480"
       inkscape:connector-curvature="0" />
    <path
       style="fill:#febc05;fill-opacity:1;stroke:none"
       d="m 257.5,566.65625 c 1.08234,0 2.24824,0.19283 3.40625,0.5625 1.15801,0.36967 2.32528,0.9152 3.40625,1.5625 1.08097,0.6473 2.08627,1.38586 2.9375,2.21875 0.85123,0.83289 1.53122,1.76107 2,2.6875 0.47053,0.92988 0.80333,2.01436 1,3.1875 0.19667,1.17314 0.25587,2.43188 0.1875,3.6875 -0.0684,1.25562 -0.26914,2.51017 -0.59375,3.6875 -0.32461,1.17733 -0.77171,2.28049 -1.34375,3.21875 -0.42789,0.70182 -1.017,1.37644 -2.03125,2.1875 -1.01425,0.81106 -2.43945,1.73657 -4.53125,2.9375 -4.18361,2.40187 -11.0277,5.88611 -22.46875,11.53125 -7.42988,3.66599 -14.54342,7.02089 -20.03125,9.5 -5.48783,2.47911 -9.34995,4.08243 -10.25,4.1875 -1.80011,0.21015 -4.72589,0.11282 -6.5,-0.25 -1.08653,-0.22222 -2.09667,-0.6099 -3.03125,-1.09375 -0.93458,-0.48385 -1.798,-1.08376 -2.5625,-1.78125 -0.7645,-0.69749 -1.42371,-1.4806 -2,-2.34375 -0.57629,-0.86315 -1.06754,-1.80043 -1.4375,-2.78125 -0.36996,-0.98082 -0.63576,-2.01199 -0.78125,-3.0625 -0.14549,-1.05051 -0.1596,-2.11528 -0.0625,-3.1875 0.0971,-1.07222 0.32968,-2.14156 0.6875,-3.1875 0.35782,-1.04594 0.83208,-2.05957 1.46875,-3.03125 0.29871,-0.4559 1.44372,-1.29341 3.1875,-2.375 1.74378,-1.08159 4.08695,-2.42526 6.875,-3.9375 5.5761,-3.02448 12.83903,-6.70451 20.1875,-10.28125 7.34847,-3.57674 14.80421,-7.05642 20.71875,-9.625 2.95727,-1.28429 5.53364,-2.32283 7.53125,-3.0625 1.99761,-0.73967 3.39409,-1.15625 4.03125,-1.15625 z"
       id="path4478"
       inkscape:connector-curvature="0" />
    <path
       style="fill:#febc05;fill-opacity:1;stroke:none"
       d="m 205.09375,520.875 c -5.27024,0.0286 -9.49944,0.11068 -12.8125,0.28125 -3.31306,0.17057 -5.70996,0.42962 -7.25,0.75 l -5.96875,1.25 -0.78125,5.59375 c -0.27045,1.94402 -0.38676,3.56566 -0.34375,4.9375 0.043,1.37184 0.24803,2.49107 0.65625,3.40625 0.40822,0.91518 1.01859,1.61347 1.84375,2.1875 0.82516,0.57403 1.86241,1.02661 3.15625,1.375 1.68385,0.45341 3.91262,0.84481 6.625,1.1875 2.71238,0.34269 5.92082,0.61972 9.53125,0.84375 7.22086,0.44807 16.09489,0.66784 26.125,0.59375 l 18.84375,-0.125 2.40625,-2.8125 c 1.20406,-1.401 2.09858,-2.91635 2.65625,-4.46875 0.55767,-1.5524 0.79799,-3.16067 0.71875,-4.6875 -0.0792,-1.52683 -0.48084,-2.9882 -1.1875,-4.3125 -0.35333,-0.66215 -0.80409,-1.29666 -1.3125,-1.875 -0.50841,-0.57834 -1.0877,-1.0901 -1.75,-1.5625 -0.7816,-0.5575 -1.40354,-0.98949 -2.3125,-1.3125 -0.90896,-0.32301 -2.09329,-0.55678 -3.96875,-0.71875 -3.75093,-0.32395 -10.28567,-0.37954 -22.9375,-0.5 -4.45136,-0.0423 -8.42401,-0.0503 -11.9375,-0.0312 z"
       id="path4476"
       inkscape:connector-curvature="0" />
    <path
       style="fill:#febc05;fill-opacity:1;stroke:none"
       d="m 205.09375,520.875 c 3.51349,-0.0191 7.48614,-0.011 11.9375,0.0312 12.65183,0.12046 19.18657,0.17605 22.9375,0.5 1.87546,0.16197 3.05979,0.39574 3.96875,0.71875 0.90896,0.32301 1.5309,0.755 2.3125,1.3125 0.6623,0.4724 1.24159,0.98416 1.75,1.5625 0.50841,0.57834 0.95917,1.21285 1.3125,1.875 0.70666,1.3243 1.10826,2.78567 1.1875,4.3125 0.0792,1.52683 -0.16108,3.1351 -0.71875,4.6875 -0.55767,1.5524 -1.45219,3.06775 -2.65625,4.46875 l -2.40625,2.8125 -18.84375,0.125 c -10.03011,0.0741 -18.90414,-0.14568 -26.125,-0.59375 -3.61043,-0.22403 -6.81887,-0.50106 -9.53125,-0.84375 -2.71238,-0.34269 -4.94115,-0.73409 -6.625,-1.1875 -1.29384,-0.34839 -2.33109,-0.80097 -3.15625,-1.375 -0.82516,-0.57403 -1.43553,-1.27232 -1.84375,-2.1875 -0.40822,-0.91518 -0.61324,-2.03441 -0.65625,-3.40625 -0.043,-1.37184 0.0733,-2.99348 0.34375,-4.9375 l 0.78125,-5.59375 5.96875,-1.25 c 1.54004,-0.32038 3.93694,-0.57943 7.25,-0.75 3.31306,-0.17057 7.54226,-0.25266 12.8125,-0.28125 z"
       id="path4474"
       inkscape:connector-curvature="0" />
    <path
       style="fill:#febc05;fill-opacity:1;stroke:none"
       d="m 222.3125,518.75 c -3.06715,0.0118 -6.51015,0.0444 -10.375,0.0937 -8.68129,0.11099 -15.19155,0.1917 -20.09375,0.40625 -2.4511,0.10727 -4.50361,0.24549 -6.21875,0.4375 -1.71514,0.19201 -3.10038,0.43403 -4.21875,0.75 -1.11837,0.31597 -1.96419,0.70835 -2.625,1.1875 -0.66081,0.47915 -1.12629,1.03718 -1.46875,1.71875 -0.34246,0.68157 -0.55544,1.48304 -0.71875,2.40625 -0.16331,0.92321 -0.28289,1.98342 -0.40625,3.1875 -0.1814,1.7706 -0.25012,3.32769 -0.21875,4.71875 0.0314,1.39106 0.18672,2.59227 0.4375,3.625 0.25078,1.03273 0.58567,1.89813 1.0625,2.59375 0.47683,0.69562 1.07173,1.24528 1.78125,1.625 0.96936,0.51878 4.61067,1.23353 9.03125,1.90625 4.42058,0.67272 9.62043,1.3034 13.75,1.5625 2.75,0.17253 13.38667,0.4009 23.625,0.5 8.75541,0.0848 13.46196,0.096 16.28125,-0.15625 1.40965,-0.1261 2.3496,-0.34096 3.09375,-0.625 0.74415,-0.28404 1.28191,-0.63389 1.90625,-1.125 0.71569,-0.56296 1.38154,-1.21755 1.96875,-1.90625 0.58721,-0.6887 1.10978,-1.43625 1.5625,-2.21875 0.90544,-1.565 1.54352,-3.28275 1.875,-5.03125 0.33148,-1.7485 0.35298,-3.51106 0.0625,-5.1875 -0.14524,-0.83822 -0.37777,-1.66521 -0.6875,-2.4375 -0.30973,-0.77229 -0.70728,-1.48184 -1.1875,-2.15625 -0.8782,-1.23332 -1.74218,-2.24279 -2.875,-3.03125 -1.13282,-0.78846 -2.53408,-1.38131 -4.5,-1.8125 -1.96592,-0.43119 -4.49752,-0.68224 -7.875,-0.84375 -3.37748,-0.16151 -7.60124,-0.20809 -12.96875,-0.1875 z"
       id="path4472"
       inkscape:connector-curvature="0" />
    <path
       style="fill:#febc05;fill-opacity:1;stroke:none"
       d="m 222.3125,518.75 c 5.36751,-0.0206 9.59127,0.026 12.96875,0.1875 3.37748,0.16151 5.90908,0.41256 7.875,0.84375 1.96592,0.43119 3.36718,1.02404 4.5,1.8125 1.13282,0.78846 1.9968,1.79793 2.875,3.03125 0.48022,0.67441 0.87777,1.38396 1.1875,2.15625 0.30973,0.77229 0.54226,1.59928 0.6875,2.4375 0.29048,1.67644 0.26898,3.439 -0.0625,5.1875 -0.33148,1.7485 -0.96956,3.46625 -1.875,5.03125 -0.45272,0.7825 -0.97529,1.53005 -1.5625,2.21875 -0.58721,0.6887 -1.25306,1.34329 -1.96875,1.90625 -0.62434,0.49111 -1.1621,0.84096 -1.90625,1.125 -0.74415,0.28404 -1.6841,0.4989 -3.09375,0.625 -2.81929,0.2522 -7.52584,0.24103 -16.28125,0.15625 -10.23833,-0.0991 -20.875,-0.32747 -23.625,-0.5 -4.12957,-0.2591 -9.32942,-0.88978 -13.75,-1.5625 -4.42058,-0.67272 -8.06189,-1.38747 -9.03125,-1.90625 -0.70952,-0.37972 -1.30442,-0.92938 -1.78125,-1.625 -0.47683,-0.69562 -0.81172,-1.56102 -1.0625,-2.59375 -0.25078,-1.03273 -0.40613,-2.23394 -0.4375,-3.625 -0.0314,-1.39106 0.0374,-2.94815 0.21875,-4.71875 0.12336,-1.20408 0.24294,-2.26429 0.40625,-3.1875 0.16331,-0.92321 0.37629,-1.72468 0.71875,-2.40625 0.34246,-0.68157 0.80794,-1.2396 1.46875,-1.71875 0.66081,-0.47915 1.50663,-0.87153 2.625,-1.1875 1.11837,-0.31597 2.50361,-0.55799 4.21875,-0.75 1.71514,-0.19201 3.76765,-0.33023 6.21875,-0.4375 4.9022,-0.21455 11.41246,-0.29526 20.09375,-0.40625 3.86485,-0.0494 7.30785,-0.082 10.375,-0.0937 z"
       id="path4470"
       inkscape:connector-curvature="0" />
    <path
       style="fill:#febc05;fill-opacity:1;stroke:none"
       d="m 542.84375,512.375 c -12.78071,0.0803 -29.87752,0.4967 -44.0625,1 -7.09249,0.25165 -13.46572,0.52131 -18.1875,0.78125 -4.72178,0.25994 -7.8072,0.5155 -8.34375,0.71875 -1.04943,0.39753 -1.98585,0.93778 -2.8125,1.59375 -0.82665,0.65597 -1.54751,1.40611 -2.125,2.28125 -0.57749,0.87514 -1.01056,1.85121 -1.3125,2.90625 -0.30194,1.05504 -0.46875,2.21057 -0.46875,3.40625 0,1.22596 0.14393,2.33918 0.40625,3.375 0.26232,1.03582 0.65889,1.99297 1.1875,2.84375 0.52861,0.85078 1.16989,1.61044 1.96875,2.28125 0.79886,0.67081 1.73942,1.25406 2.8125,1.75 0.54822,0.25337 2.0297,0.45832 4.21875,0.625 2.18905,0.16668 5.10457,0.28889 8.46875,0.375 6.72836,0.17222 15.33401,0.17586 23.96875,0.0625 8.63474,-0.11336 17.27818,-0.33751 24.09375,-0.6875 3.40778,-0.17499 6.37055,-0.40003 8.625,-0.625 2.25445,-0.22497 3.80207,-0.44991 4.4375,-0.71875 1.15322,-0.4879 2.15779,-1.03818 3.03125,-1.65625 0.87346,-0.61807 1.63596,-1.31946 2.25,-2.09375 0.61404,-0.77429 1.09378,-1.63717 1.46875,-2.59375 0.37497,-0.95658 0.625,-1.99133 0.78125,-3.15625 0.11314,-0.84354 0.15112,-1.69671 0.0937,-2.5 -0.0574,-0.80329 -0.19398,-1.56827 -0.40625,-2.3125 -0.42455,-1.48847 -1.14328,-2.82937 -2.09375,-3.96875 -0.95047,-1.13938 -2.14853,-2.07894 -3.5,-2.71875 -0.67573,-0.31991 -1.37244,-0.55195 -2.125,-0.71875 -0.75256,-0.1668 -1.56123,-0.25511 -2.375,-0.25 z"
       id="path4468"
       inkscape:connector-curvature="0" />
    <path
       style="fill:#febc05;fill-opacity:1;stroke:none"
       d="m 542.84375,512.375 c 0.81377,-0.005 1.62244,0.0832 2.375,0.25 0.75256,0.1668 1.44927,0.39884 2.125,0.71875 1.35147,0.63981 2.54953,1.57937 3.5,2.71875 0.95047,1.13938 1.6692,2.48028 2.09375,3.96875 0.21227,0.74423 0.34888,1.50921 0.40625,2.3125 0.0574,0.80329 0.0194,1.65646 -0.0937,2.5 -0.15625,1.16492 -0.40628,2.19967 -0.78125,3.15625 -0.37497,0.95658 -0.85471,1.81946 -1.46875,2.59375 -0.61404,0.77429 -1.37654,1.47568 -2.25,2.09375 -0.87346,0.61807 -1.87803,1.16835 -3.03125,1.65625 -0.63543,0.26884 -2.18305,0.49378 -4.4375,0.71875 -2.25445,0.22497 -5.21722,0.45001 -8.625,0.625 -6.81557,0.34999 -15.45901,0.57414 -24.09375,0.6875 -8.63474,0.11336 -17.24039,0.10972 -23.96875,-0.0625 -3.36418,-0.0861 -6.2797,-0.20832 -8.46875,-0.375 -2.18905,-0.16668 -3.67053,-0.37163 -4.21875,-0.625 -1.07308,-0.49594 -2.01364,-1.07919 -2.8125,-1.75 -0.79886,-0.67081 -1.44014,-1.43047 -1.96875,-2.28125 -0.52861,-0.85078 -0.92518,-1.80793 -1.1875,-2.84375 -0.26232,-1.03582 -0.40625,-2.14904 -0.40625,-3.375 0,-1.19568 0.16681,-2.35121 0.46875,-3.40625 0.30194,-1.05504 0.73501,-2.03111 1.3125,-2.90625 0.57749,-0.87514 1.29835,-1.62528 2.125,-2.28125 0.82665,-0.65597 1.76307,-1.19622 2.8125,-1.59375 0.53655,-0.20325 3.62197,-0.45881 8.34375,-0.71875 4.72178,-0.25994 11.09501,-0.5296 18.1875,-0.78125 14.18498,-0.5033 31.28179,-0.9197 44.0625,-1 z"
       id="path4466"
       inkscape:connector-curvature="0" />
    <path
       style="fill:#febc05;fill-opacity:1;stroke:none"
       d="m 538.40625,510.34375 c -2.13118,0.035 -4.58713,0.14892 -7.4375,0.34375 -7.11024,0.486 -22.95394,0.9171 -35.21875,0.9375 -6.03632,0.01 -10.68032,0.0358 -14.3125,0.15625 -3.63218,0.12045 -6.25254,0.31235 -8.25,0.6875 -0.99873,0.18757 -1.82818,0.44044 -2.5625,0.71875 -0.73432,0.27831 -1.37141,0.58167 -1.9375,0.96875 -1.13218,0.77416 -2.02617,1.80752 -3.0625,3.125 -0.56449,0.71764 -1.00374,1.51634 -1.34375,2.375 -0.34001,0.85866 -0.55845,1.77096 -0.6875,2.71875 -0.12905,0.94779 -0.16211,1.92122 -0.0937,2.90625 0.0684,0.98503 0.21651,1.96711 0.46875,2.9375 0.25224,0.97039 0.60866,1.93988 1.03125,2.84375 0.42259,0.90387 0.92061,1.74579 1.5,2.53125 0.57939,0.78546 1.24609,1.50984 1.96875,2.125 0.72266,0.61516 1.49135,1.13828 2.34375,1.53125 0.68439,0.31552 1.58014,0.56538 2.96875,0.75 1.38861,0.18462 3.26443,0.30507 6,0.375 5.47114,0.13986 14.28458,0.0655 29,-0.15625 9.31599,-0.14036 16.4041,-0.25729 21.875,-0.4375 5.4709,-0.18021 9.32311,-0.42916 12.15625,-0.8125 1.41657,-0.19167 2.579,-0.41444 3.5625,-0.6875 0.9835,-0.27306 1.79865,-0.59388 2.5,-0.96875 1.4027,-0.74974 2.38291,-1.72058 3.5625,-3 0.87036,-0.94402 1.56254,-2.15178 2.0625,-3.46875 0.49996,-1.31697 0.82474,-2.74278 0.9375,-4.21875 0.11276,-1.47597 0.01,-2.98524 -0.28125,-4.40625 -0.29124,-1.42101 -0.78796,-2.75415 -1.5,-3.90625 -0.71298,-1.15361 -1.43937,-2.11851 -2.28125,-2.90625 -0.84188,-0.78774 -1.78669,-1.40782 -2.9375,-1.875 -1.15081,-0.46718 -2.51647,-0.7768 -4.15625,-0.96875 -1.63978,-0.19195 -3.56622,-0.25672 -5.875,-0.21875 z"
       id="path4464"
       inkscape:connector-curvature="0" />
    <path
       style="fill:#febc05;fill-opacity:1;stroke:none"
       d="m 538.40625,510.34375 c 2.30878,-0.038 4.23522,0.0268 5.875,0.21875 1.63978,0.19195 3.00544,0.50157 4.15625,0.96875 1.15081,0.46718 2.09562,1.08726 2.9375,1.875 0.84188,0.78774 1.56827,1.75264 2.28125,2.90625 0.71204,1.1521 1.20876,2.48524 1.5,3.90625 0.29124,1.42101 0.39401,2.93028 0.28125,4.40625 -0.11276,1.47597 -0.43754,2.90178 -0.9375,4.21875 -0.49996,1.31697 -1.19214,2.52473 -2.0625,3.46875 -1.17959,1.27942 -2.1598,2.25026 -3.5625,3 -0.70135,0.37487 -1.5165,0.69569 -2.5,0.96875 -0.9835,0.27306 -2.14593,0.49583 -3.5625,0.6875 -2.83314,0.38334 -6.68535,0.63229 -12.15625,0.8125 -5.4709,0.18021 -12.55901,0.29714 -21.875,0.4375 -14.71542,0.22171 -23.52886,0.29611 -29,0.15625 -2.73557,-0.0699 -4.61139,-0.19038 -6,-0.375 -1.38861,-0.18462 -2.28436,-0.43448 -2.96875,-0.75 -0.8524,-0.39297 -1.62109,-0.91609 -2.34375,-1.53125 -0.72266,-0.61516 -1.38936,-1.33954 -1.96875,-2.125 -0.57939,-0.78546 -1.07741,-1.62738 -1.5,-2.53125 -0.42259,-0.90387 -0.77901,-1.87336 -1.03125,-2.84375 -0.25224,-0.97039 -0.40039,-1.95247 -0.46875,-2.9375 -0.0684,-0.98503 -0.0353,-1.95846 0.0937,-2.90625 0.12905,-0.94779 0.34749,-1.86009 0.6875,-2.71875 0.34001,-0.85866 0.77926,-1.65736 1.34375,-2.375 1.03633,-1.31748 1.93032,-2.35084 3.0625,-3.125 0.56609,-0.38708 1.20318,-0.69044 1.9375,-0.96875 0.73432,-0.27831 1.56377,-0.53118 2.5625,-0.71875 1.99746,-0.37515 4.61782,-0.56705 8.25,-0.6875 3.63218,-0.12045 8.27618,-0.1462 14.3125,-0.15625 12.26481,-0.0204 28.10851,-0.4515 35.21875,-0.9375 2.85037,-0.19483 5.30632,-0.30875 7.4375,-0.34375 z"
       id="path4462"
       inkscape:connector-curvature="0" />
    <path
       style="fill:#febc05;fill-opacity:1;stroke:none"
       d="m 537.25,445.40625 -8.59375,0.5 c -2.82267,0.16584 -6.97773,0.78887 -12.375,1.84375 -5.39727,1.05488 -12.03675,2.54159 -19.75,4.4375 -10.7989,2.65436 -16.72934,4.15399 -20.34375,5.375 -1.8072,0.61051 -3.0395,1.14686 -4,1.71875 -0.9605,0.57189 -1.65952,1.19108 -2.40625,1.9375 -1.05066,1.05021 -1.82387,2.14144 -2.375,3.28125 -0.55113,1.13981 -0.86673,2.31429 -0.96875,3.46875 -0.10202,1.15446 0.0159,2.31208 0.3125,3.40625 0.29665,1.09417 0.76135,2.1348 1.40625,3.09375 0.6449,0.95895 1.46354,1.81371 2.40625,2.5625 0.94271,0.74879 2.02866,1.38006 3.21875,1.84375 1.19009,0.46369 2.48795,0.77135 3.875,0.875 1.38705,0.10365 2.84143,0.0188 4.375,-0.3125 2.2,-0.4753 10.975,-2.47849 19.5,-4.4375 5.95696,-1.36889 11.05302,-2.62382 15.40625,-3.78125 4.35323,-1.15743 7.98146,-2.22005 10.96875,-3.25 2.98729,-1.02995 5.32833,-2.01355 7.1875,-3 1.85917,-0.98645 3.21864,-1.97307 4.1875,-3 1.01931,-1.0804 1.80815,-2.16345 2.34375,-3.21875 0.5356,-1.0553 0.823,-2.08948 0.875,-3.15625 0.052,-1.06677 -0.13103,-2.16645 -0.5625,-3.28125 -0.43147,-1.1148 -1.11643,-2.23811 -2.03125,-3.4375 L 537.25,445.40625 z"
       id="path4460"
       inkscape:connector-curvature="0" />
    <path
       style="fill:#febc05;fill-opacity:1;stroke:none"
       d="m 537.25,445.40625 2.65625,3.46875 c 0.91482,1.19939 1.59978,2.3227 2.03125,3.4375 0.43147,1.1148 0.6145,2.21448 0.5625,3.28125 -0.052,1.06677 -0.3394,2.10095 -0.875,3.15625 -0.5356,1.0553 -1.32444,2.13835 -2.34375,3.21875 -0.96886,1.02693 -2.32833,2.01355 -4.1875,3 -1.85917,0.98645 -4.20021,1.97005 -7.1875,3 -2.98729,1.02995 -6.61552,2.09257 -10.96875,3.25 -4.35323,1.15743 -9.44929,2.41236 -15.40625,3.78125 -8.525,1.95901 -17.3,3.9622 -19.5,4.4375 -1.53357,0.33132 -2.98795,0.41615 -4.375,0.3125 -1.38705,-0.10365 -2.68491,-0.41131 -3.875,-0.875 -1.19009,-0.46369 -2.27604,-1.09496 -3.21875,-1.84375 -0.94271,-0.74879 -1.76135,-1.60355 -2.40625,-2.5625 -0.6449,-0.95895 -1.1096,-1.99958 -1.40625,-3.09375 -0.29665,-1.09417 -0.41452,-2.25179 -0.3125,-3.40625 0.10202,-1.15446 0.41762,-2.32894 0.96875,-3.46875 0.55113,-1.13981 1.32434,-2.23104 2.375,-3.28125 0.74673,-0.74642 1.44575,-1.36561 2.40625,-1.9375 0.9605,-0.57189 2.1928,-1.10824 4,-1.71875 3.61441,-1.22101 9.54485,-2.72064 20.34375,-5.375 7.71325,-1.89591 14.35273,-3.38262 19.75,-4.4375 5.39727,-1.05488 9.55233,-1.67791 12.375,-1.84375 l 8.59375,-0.5 z"
       id="path4458"
       inkscape:connector-curvature="0" />
    <path
       style="fill:#febc05;fill-opacity:1;stroke:none"
       d="m 531.3125,443.59375 c -1.78449,0.0544 -3.83444,0.23423 -6.1875,0.53125 -2.35306,0.29702 -5.01103,0.70601 -7.96875,1.25 -5.91543,1.08798 -13.07446,2.6794 -21.625,4.78125 -11.31381,2.7811 -17.2173,4.26226 -20.75,5.5 -1.76635,0.61887 -2.95009,1.15357 -3.90625,1.78125 -0.95616,0.62768 -1.69105,1.35041 -2.59375,2.25 -1.63717,1.63154 -2.56554,2.68795 -3.09375,3.875 -0.2641,0.59353 -0.4355,1.23975 -0.53125,1.96875 -0.0958,0.729 -0.125,1.56488 -0.125,2.59375 0,1.33808 0.12393,2.57477 0.375,3.75 0.25107,1.17523 0.6304,2.28411 1.125,3.28125 0.4946,0.99714 1.11314,1.88369 1.84375,2.6875 0.73061,0.80381 1.57216,1.52977 2.53125,2.125 1.02506,0.63617 2.22315,1.07304 3.71875,1.3125 1.4956,0.23946 3.2823,0.27697 5.5625,0.0937 2.2802,-0.18322 5.05862,-0.58691 8.4375,-1.21875 3.37888,-0.63184 7.36462,-1.48732 12.15625,-2.59375 6.78949,-1.56776 12.43906,-2.9443 17.15625,-4.1875 4.71719,-1.2432 8.51079,-2.36692 11.59375,-3.4375 3.08296,-1.07058 5.45696,-2.0751 7.34375,-3.125 1.88679,-1.0499 3.27756,-2.13134 4.40625,-3.3125 1.43735,-1.50418 2.39059,-2.69653 2.96875,-3.84375 0.57816,-1.14722 0.78125,-2.24932 0.78125,-3.59375 0,-0.99698 -0.0936,-2.01486 -0.3125,-3 -0.21894,-0.98514 -0.54985,-1.94506 -0.96875,-2.875 -0.4189,-0.92994 -0.93136,-1.82485 -1.53125,-2.65625 -0.59989,-0.8314 -1.30061,-1.59175 -2.0625,-2.28125 -0.67998,-0.61538 -1.68191,-1.06722 -3.0625,-1.34375 -1.38059,-0.27653 -3.13986,-0.37775 -5.28125,-0.3125 z"
       id="path4456"
       inkscape:connector-curvature="0" />
    <path
       style="fill:#febc05;fill-opacity:1;stroke:none"
       d="m 531.3125,443.59375 c 2.14139,-0.0652 3.90066,0.036 5.28125,0.3125 1.38059,0.27653 2.38252,0.72837 3.0625,1.34375 0.76189,0.6895 1.46261,1.44985 2.0625,2.28125 0.59989,0.8314 1.11235,1.72631 1.53125,2.65625 0.4189,0.92994 0.74981,1.88986 0.96875,2.875 0.21894,0.98514 0.3125,2.00302 0.3125,3 0,1.34443 -0.20309,2.44653 -0.78125,3.59375 -0.57816,1.14722 -1.5314,2.33957 -2.96875,3.84375 -1.12869,1.18116 -2.51946,2.2626 -4.40625,3.3125 -1.88679,1.0499 -4.26079,2.05442 -7.34375,3.125 -3.08296,1.07058 -6.87656,2.1943 -11.59375,3.4375 -4.71719,1.2432 -10.36676,2.61974 -17.15625,4.1875 -4.79163,1.10643 -8.77737,1.96191 -12.15625,2.59375 -3.37888,0.63184 -6.1573,1.03553 -8.4375,1.21875 -2.2802,0.18322 -4.0669,0.14571 -5.5625,-0.0937 -1.4956,-0.23946 -2.69369,-0.67633 -3.71875,-1.3125 -0.95909,-0.59523 -1.80064,-1.32119 -2.53125,-2.125 -0.73061,-0.80381 -1.34915,-1.69036 -1.84375,-2.6875 -0.4946,-0.99714 -0.87393,-2.10602 -1.125,-3.28125 -0.25107,-1.17523 -0.375,-2.41192 -0.375,-3.75 0,-1.02887 0.0292,-1.86475 0.125,-2.59375 0.0958,-0.729 0.26715,-1.37522 0.53125,-1.96875 0.52821,-1.18705 1.45658,-2.24346 3.09375,-3.875 0.9027,-0.89959 1.63759,-1.62232 2.59375,-2.25 0.95616,-0.62768 2.1399,-1.16238 3.90625,-1.78125 3.5327,-1.23774 9.43619,-2.7189 20.75,-5.5 8.55054,-2.10185 15.70957,-3.69327 21.625,-4.78125 2.95772,-0.54399 5.61569,-0.95298 7.96875,-1.25 2.35306,-0.29702 4.40301,-0.47688 6.1875,-0.53125 z"
       id="path4454"
       inkscape:connector-curvature="0" />
    <path
       style="fill:#febc05;fill-opacity:1;stroke:none"
       d="m 206.8125,427.84375 c -1.69042,0.0893 -4.00908,0.59989 -5.875,1.3125 -1.28194,0.48958 -2.34804,1.04622 -3.21875,1.6875 -0.87071,0.64128 -1.55214,1.35937 -2.03125,2.1875 -0.47911,0.82813 -0.76788,1.76237 -0.875,2.8125 -0.10712,1.05013 -0.0265,2.22396 0.21875,3.53125 0.13724,0.73157 0.45533,1.48131 0.96875,2.25 0.51342,0.76869 1.23256,1.55114 2.15625,2.375 0.92369,0.82386 2.06943,1.66543 3.4375,2.5625 1.36807,0.89707 2.96594,1.85541 4.8125,2.84375 3.69311,1.97667 8.37583,4.14376 14.1875,6.59375 5.81167,2.44999 12.73444,5.18232 20.9375,8.25 5.3625,2.0054 10.5125,3.82508 14.5,5.15625 3.9875,1.33117 6.8125,2.17385 7.5,2.1875 0.6875,0.0136 1.69633,-0.20565 2.75,-0.5625 1.05367,-0.35685 2.1522,-0.85126 3.0625,-1.40625 1.12253,-0.68439 2.12383,-1.55097 2.9375,-2.5 0.81367,-0.94903 1.44496,-1.98172 1.90625,-3.09375 0.46129,-1.11203 0.74708,-2.29536 0.8125,-3.46875 0.0654,-1.17339 -0.0948,-2.33564 -0.46875,-3.46875 -0.30845,-0.93462 -0.87379,-2.02495 -1.53125,-3 -0.65746,-0.97505 -1.40703,-1.83483 -2.09375,-2.375 -0.98807,-0.77722 -4.89199,-2.57112 -10.34375,-4.84375 -5.45176,-2.27263 -12.43225,-5.02091 -19.53125,-7.71875 -7.099,-2.69784 -14.32023,-5.35339 -20.25,-7.40625 -5.92977,-2.05286 -10.58718,-3.50608 -12.53125,-3.84375 -0.38394,-0.0665 -0.87403,-0.0923 -1.4375,-0.0625 z"
       id="path4452"
       inkscape:connector-curvature="0" />
    <path
       style="fill:#febc05;fill-opacity:1;stroke:none"
       d="m 206.8125,427.84375 c 0.56347,-0.0298 1.05356,-0.004 1.4375,0.0625 1.94407,0.33767 6.60148,1.79089 12.53125,3.84375 5.92977,2.05286 13.151,4.70841 20.25,7.40625 7.099,2.69784 14.07949,5.44612 19.53125,7.71875 5.45176,2.27263 9.35568,4.06653 10.34375,4.84375 0.68672,0.54017 1.43629,1.39995 2.09375,2.375 0.65746,0.97505 1.2228,2.06538 1.53125,3 0.37396,1.13311 0.53417,2.29536 0.46875,3.46875 -0.0654,1.17339 -0.35121,2.35672 -0.8125,3.46875 -0.46129,1.11203 -1.09258,2.14472 -1.90625,3.09375 -0.81367,0.94903 -1.81497,1.81561 -2.9375,2.5 -0.9103,0.55499 -2.00883,1.0494 -3.0625,1.40625 -1.05367,0.35685 -2.0625,0.57615 -2.75,0.5625 -0.6875,-0.0136 -3.5125,-0.85633 -7.5,-2.1875 -3.9875,-1.33117 -9.1375,-3.15085 -14.5,-5.15625 -8.20306,-3.06768 -15.12583,-5.80001 -20.9375,-8.25 -5.81167,-2.44999 -10.49439,-4.61708 -14.1875,-6.59375 -1.84656,-0.98834 -3.44443,-1.94668 -4.8125,-2.84375 -1.36807,-0.89707 -2.51381,-1.73864 -3.4375,-2.5625 -0.92369,-0.82386 -1.64283,-1.60631 -2.15625,-2.375 -0.51342,-0.76869 -0.83151,-1.51843 -0.96875,-2.25 -0.24525,-1.30729 -0.32587,-2.48112 -0.21875,-3.53125 0.10712,-1.05013 0.39589,-1.98437 0.875,-2.8125 0.47911,-0.82813 1.16054,-1.54622 2.03125,-2.1875 0.87071,-0.64128 1.93681,-1.19792 3.21875,-1.6875 1.86592,-0.71261 4.18458,-1.22324 5.875,-1.3125 z"
       id="path4450"
       inkscape:connector-curvature="0" />
    <path
       style="fill:#febc05;fill-opacity:1;stroke:none"
       d="m 206.21875,425.65625 c -0.89584,0 -2.19478,0.24844 -3.59375,0.65625 -1.39897,0.40781 -2.89798,0.975 -4.125,1.59375 -1.80719,0.91131 -2.95037,1.64837 -3.75,2.53125 -0.39981,0.44144 -0.7126,0.91438 -0.96875,1.46875 -0.25615,0.55437 -0.4716,1.19016 -0.65625,1.9375 -0.36716,1.48605 -0.54025,2.83536 -0.5,4.09375 0.0402,1.25839 0.30531,2.40646 0.78125,3.5 0.47594,1.09354 1.18509,2.13349 2.125,3.125 0.93991,0.99151 2.09909,1.95396 3.53125,2.90625 1.95874,1.30242 4.21435,2.6164 6.8125,4 2.59815,1.3836 5.54092,2.82034 8.90625,4.34375 6.73067,3.04682 15.12141,6.44837 25.6875,10.40625 5.3809,2.01559 10.66583,3.85141 14.8125,5.1875 4.14667,1.33609 7.15509,2.17245 8.0625,2.1875 1.53065,0.0254 2.98928,-0.19997 4.3125,-0.625 1.32322,-0.42503 2.51466,-1.06132 3.59375,-1.84375 1.07909,-0.78243 2.0455,-1.70321 2.84375,-2.75 0.79825,-1.04679 1.42555,-2.21937 1.90625,-3.4375 0.4807,-1.21813 0.81106,-2.48481 0.9375,-3.78125 0.12644,-1.29644 0.0458,-2.62453 -0.21875,-3.90625 -0.26452,-1.28172 -0.71406,-2.54478 -1.40625,-3.71875 -0.69219,-1.17397 -1.62468,-2.24556 -2.78125,-3.21875 -0.61881,-0.52069 -2.00721,-1.29105 -4,-2.25 -1.99279,-0.95895 -4.58246,-2.12161 -7.5625,-3.375 -5.96009,-2.50678 -13.5051,-5.45956 -21.09375,-8.28125 -7.58865,-2.82169 -15.22045,-5.51391 -21.34375,-7.5 -3.06165,-0.99305 -5.7598,-1.80657 -7.875,-2.375 -2.1152,-0.56843 -3.65548,-0.875 -4.4375,-0.875 z"
       id="path4448"
       inkscape:connector-curvature="0" />
    <path
       style="fill:#febc05;fill-opacity:1;stroke:none"
       d="m 206.21875,425.65625 c 0.78202,0 2.3223,0.30657 4.4375,0.875 2.1152,0.56843 4.81335,1.38195 7.875,2.375 6.1233,1.98609 13.7551,4.67831 21.34375,7.5 7.58865,2.82169 15.13366,5.77447 21.09375,8.28125 2.98004,1.25339 5.56971,2.41605 7.5625,3.375 1.99279,0.95895 3.38119,1.72931 4,2.25 1.15657,0.97319 2.08906,2.04478 2.78125,3.21875 0.69219,1.17397 1.14173,2.43703 1.40625,3.71875 0.26452,1.28172 0.34519,2.60981 0.21875,3.90625 -0.12644,1.29644 -0.4568,2.56312 -0.9375,3.78125 -0.4807,1.21813 -1.108,2.39071 -1.90625,3.4375 -0.79825,1.04679 -1.76466,1.96757 -2.84375,2.75 -1.07909,0.78243 -2.27053,1.41872 -3.59375,1.84375 -1.32322,0.42503 -2.78185,0.6504 -4.3125,0.625 -0.90741,-0.015 -3.91583,-0.85141 -8.0625,-2.1875 -4.14667,-1.33609 -9.4316,-3.17191 -14.8125,-5.1875 -10.56609,-3.95788 -18.95683,-7.35943 -25.6875,-10.40625 -3.36533,-1.52341 -6.3081,-2.96015 -8.90625,-4.34375 -2.59815,-1.3836 -4.85376,-2.69758 -6.8125,-4 -1.43216,-0.95229 -2.59134,-1.91474 -3.53125,-2.90625 -0.93991,-0.99151 -1.64906,-2.03146 -2.125,-3.125 -0.47594,-1.09354 -0.741,-2.24161 -0.78125,-3.5 -0.0402,-1.25839 0.13284,-2.6077 0.5,-4.09375 0.18465,-0.74734 0.4001,-1.38313 0.65625,-1.9375 0.25615,-0.55437 0.56894,-1.02731 0.96875,-1.46875 0.79963,-0.88288 1.94281,-1.61994 3.75,-2.53125 1.22702,-0.61875 2.72603,-1.18594 4.125,-1.59375 1.39897,-0.40781 2.69791,-0.65625 3.59375,-0.65625 z"
       id="path4446"
       inkscape:connector-curvature="0" />
    <path
       style="fill:#febc05;fill-opacity:1;stroke:none"
       d="m 474.53125,371.875 c -0.83156,0.0161 -1.59433,0.30668 -2.65625,0.875 -1.12432,0.60172 -2.82796,2.01769 -4.9375,4.0625 -2.10954,2.04481 -4.61366,4.70796 -7.3125,7.75 -2.69884,3.04204 -5.60777,6.46911 -8.5,10.0625 -2.89223,3.59339 -5.77907,7.36363 -8.46875,11.0625 -4.16588,5.72895 -6.77633,9.48521 -8.40625,12.25 -0.81496,1.3824 -1.39488,2.53739 -1.78125,3.53125 -0.38637,0.99386 -0.59278,1.84719 -0.6875,2.6875 -0.14243,1.26364 -0.14731,2.38436 -0.0312,3.40625 0.11606,1.02189 0.34706,1.94263 0.75,2.78125 0.40294,0.83862 0.96927,1.59868 1.6875,2.3125 0.71823,0.71382 1.59434,1.38376 2.65625,2.03125 0.95684,0.58343 1.93659,1.03094 2.90625,1.34375 0.96966,0.31281 1.92732,0.49094 2.90625,0.53125 0.97893,0.0403 1.9841,-0.0784 2.96875,-0.3125 0.98465,-0.23406 1.95067,-0.58344 2.9375,-1.09375 0.80294,-0.41522 2.02207,-1.50156 3.3125,-2.90625 1.29043,-1.40469 2.65214,-3.12772 3.8125,-4.84375 2.32071,-3.43207 8.04837,-11.425 12.71875,-17.75 5.97907,-8.09735 10.27602,-14.20666 13.0625,-18.65625 1.39324,-2.22479 2.39126,-4.03473 3.0625,-5.46875 0.67124,-1.43402 1,-2.49473 1,-3.21875 0,-0.78959 -0.24719,-1.69824 -0.6875,-2.625 -0.44031,-0.92676 -1.05869,-1.8713 -1.8125,-2.78125 -0.75381,-0.90995 -1.65325,-1.7921 -2.59375,-2.53125 -0.9405,-0.73915 -1.93711,-1.33562 -2.9375,-1.75 -1.26329,-0.52327 -2.13719,-0.7661 -2.96875,-0.75 z"
       id="path4444"
       inkscape:connector-curvature="0" />
    <path
       style="fill:#febc05;fill-opacity:1;stroke:none"
       d="m 474.53125,371.875 c 0.83156,-0.0161 1.70546,0.22673 2.96875,0.75 1.00039,0.41438 1.997,1.01085 2.9375,1.75 0.9405,0.73915 1.83994,1.6213 2.59375,2.53125 0.75381,0.90995 1.37219,1.85449 1.8125,2.78125 0.44031,0.92676 0.6875,1.83541 0.6875,2.625 0,0.72402 -0.32876,1.78473 -1,3.21875 -0.67124,1.43402 -1.66926,3.24396 -3.0625,5.46875 -2.78648,4.44959 -7.08343,10.5589 -13.0625,18.65625 -4.67038,6.325 -10.39804,14.31793 -12.71875,17.75 -1.16036,1.71603 -2.52207,3.43906 -3.8125,4.84375 -1.29043,1.40469 -2.50956,2.49103 -3.3125,2.90625 -0.98683,0.51031 -1.95285,0.85969 -2.9375,1.09375 -0.98465,0.23406 -1.98982,0.35281 -2.96875,0.3125 -0.97893,-0.0403 -1.93659,-0.21844 -2.90625,-0.53125 -0.96966,-0.31281 -1.94941,-0.76032 -2.90625,-1.34375 -1.06191,-0.64749 -1.93802,-1.31743 -2.65625,-2.03125 -0.71823,-0.71382 -1.28456,-1.47388 -1.6875,-2.3125 -0.40294,-0.83862 -0.63394,-1.75936 -0.75,-2.78125 -0.11606,-1.02189 -0.11118,-2.14261 0.0312,-3.40625 0.0947,-0.84031 0.30113,-1.69364 0.6875,-2.6875 0.38637,-0.99386 0.96629,-2.14885 1.78125,-3.53125 1.62992,-2.76479 4.24037,-6.52105 8.40625,-12.25 2.68968,-3.69887 5.57652,-7.46911 8.46875,-11.0625 2.89223,-3.59339 5.80116,-7.02046 8.5,-10.0625 2.69884,-3.04204 5.20296,-5.70519 7.3125,-7.75 2.10954,-2.04481 3.81318,-3.46078 4.9375,-4.0625 1.06192,-0.56832 1.82469,-0.85889 2.65625,-0.875 z"
       id="path4442"
       inkscape:connector-curvature="0" />
    <path
       style="fill:#febc05;fill-opacity:1;stroke:none"
       d="m 474.40625,369.875 c -0.45896,0.0192 -0.91249,0.0793 -1.34375,0.1875 -0.72342,0.18157 -1.61501,0.64676 -2.6875,1.375 -1.07249,0.72824 -2.32828,1.70088 -3.6875,2.90625 -2.71844,2.41075 -5.94617,5.72291 -9.4375,9.625 -3.49133,3.90209 -7.2345,8.41283 -11,13.25 -3.7655,4.83717 -7.55277,10.00277 -11.09375,15.21875 -2.2615,3.33127 -3.65913,5.59521 -4.5,7.4375 -0.42044,0.92115 -0.70102,1.74633 -0.875,2.53125 -0.17398,0.78492 -0.25,1.53772 -0.25,2.34375 0,1.29439 0.15979,2.51717 0.4375,3.6875 0.27771,1.17033 0.68095,2.26587 1.21875,3.28125 0.5378,1.01538 1.1885,1.9517 1.96875,2.78125 0.78025,0.82955 1.68244,1.57468 2.6875,2.1875 0.95628,0.58308 2.03509,1.02861 3.1875,1.34375 1.15241,0.31514 2.39964,0.48893 3.625,0.53125 1.22536,0.0423 2.44989,-0.0459 3.625,-0.28125 1.17511,-0.23539 2.27959,-0.60702 3.28125,-1.125 0.80989,-0.41881 2.34307,-1.93487 4.15625,-4.03125 1.81318,-2.09638 3.90635,-4.77309 5.90625,-7.59375 3.94933,-5.57016 10.98214,-15.35809 15.625,-21.71875 3.3704,-4.61741 5.9787,-8.32196 7.90625,-11.375 0.96378,-1.52652 1.7707,-2.88986 2.40625,-4.125 0.63555,-1.23514 1.10853,-2.36477 1.4375,-3.375 0.32897,-1.01023 0.51845,-1.8982 0.5625,-2.75 0.0441,-0.8518 -0.062,-1.6464 -0.28125,-2.40625 -0.21921,-0.75985 -0.57043,-1.48438 -1.03125,-2.21875 -0.46082,-0.73437 -1.03798,-1.47464 -1.71875,-2.25 -0.78396,-0.89288 -1.59228,-1.6873 -2.4375,-2.375 -0.84522,-0.6877 -1.72491,-1.28512 -2.59375,-1.75 -0.86884,-0.46488 -1.73892,-0.80682 -2.59375,-1.03125 -0.85483,-0.22443 -1.69683,-0.3149 -2.5,-0.28125 z"
       id="path4440"
       inkscape:connector-curvature="0" />
    <path
       style="fill:#febc05;fill-opacity:1;stroke:none"
       d="m 474.40625,369.875 c 0.80317,-0.0337 1.64517,0.0568 2.5,0.28125 0.85483,0.22443 1.72491,0.56637 2.59375,1.03125 0.86884,0.46488 1.74853,1.0623 2.59375,1.75 0.84522,0.6877 1.65354,1.48212 2.4375,2.375 0.68077,0.77536 1.25793,1.51563 1.71875,2.25 0.46082,0.73437 0.81204,1.4589 1.03125,2.21875 0.21921,0.75985 0.3253,1.55445 0.28125,2.40625 -0.0441,0.8518 -0.23353,1.73977 -0.5625,2.75 -0.32897,1.01023 -0.80195,2.13986 -1.4375,3.375 -0.63555,1.23514 -1.44247,2.59848 -2.40625,4.125 -1.92755,3.05304 -4.53585,6.75759 -7.90625,11.375 -4.64286,6.36066 -11.67567,16.14859 -15.625,21.71875 -1.9999,2.82066 -4.09307,5.49737 -5.90625,7.59375 -1.81318,2.09638 -3.34636,3.61244 -4.15625,4.03125 -1.00166,0.51798 -2.10614,0.88961 -3.28125,1.125 -1.17511,0.23539 -2.39964,0.32357 -3.625,0.28125 -1.22536,-0.0423 -2.47259,-0.21611 -3.625,-0.53125 -1.15241,-0.31514 -2.23122,-0.76067 -3.1875,-1.34375 -1.00506,-0.61282 -1.90725,-1.35795 -2.6875,-2.1875 -0.78025,-0.82955 -1.43095,-1.76587 -1.96875,-2.78125 -0.5378,-1.01538 -0.94104,-2.11092 -1.21875,-3.28125 -0.27771,-1.17033 -0.4375,-2.39311 -0.4375,-3.6875 0,-0.80603 0.076,-1.55883 0.25,-2.34375 0.17398,-0.78492 0.45456,-1.6101 0.875,-2.53125 0.84087,-1.84229 2.2385,-4.10623 4.5,-7.4375 3.54098,-5.21598 7.32825,-10.38158 11.09375,-15.21875 3.7655,-4.83717 7.50867,-9.34791 11,-13.25 3.49133,-3.90209 6.71906,-7.21425 9.4375,-9.625 1.35922,-1.20537 2.61501,-2.17801 3.6875,-2.90625 1.07249,-0.72824 1.96408,-1.19343 2.6875,-1.375 0.43126,-0.1082 0.88479,-0.1683 1.34375,-0.1875 z"
       id="path4438"
       inkscape:connector-curvature="0" />
    <path
       style="fill:#febc05;fill-opacity:1;stroke:none"
       d="m 257.625,367.46875 c -1.36671,0.0668 -2.73199,0.3992 -4.03125,1 -1.29926,0.6008 -2.5325,1.47 -3.65625,2.59375 -1.0534,1.0534 -1.85855,2.17833 -2.4375,3.34375 -0.57895,1.16542 -0.93164,2.37184 -1.03125,3.59375 -0.0996,1.22191 0.0529,2.43337 0.4375,3.65625 0.38461,1.22288 1.00127,2.45668 1.875,3.625 1.62302,2.17025 5.29171,6.43603 9.90625,11.625 4.61454,5.18897 10.1732,11.30442 15.625,17.1875 5.4518,5.88308 10.8027,11.52868 14.9375,15.78125 4.1348,4.25257 7.05523,7.10882 7.71875,7.40625 0.86605,0.38822 1.79887,0.6427 2.75,0.78125 0.95113,0.13855 1.92458,0.13664 2.90625,0.0312 0.98167,-0.10539 1.97982,-0.31267 2.9375,-0.65625 0.95768,-0.34358 1.87085,-0.79896 2.75,-1.375 0.77837,-0.51001 1.50626,-1.26908 2.15625,-2.15625 0.64999,-0.88717 1.24292,-1.92239 1.6875,-3 0.44458,-1.07761 0.7441,-2.19993 0.90625,-3.28125 0.16215,-1.08132 0.16606,-2.10168 -0.0312,-3 -0.15048,-0.68513 -2.76778,-4.06684 -6.71875,-8.84375 -3.95097,-4.77691 -9.21191,-10.95408 -14.6875,-17.21875 -5.47559,-6.26467 -11.15068,-12.63286 -15.875,-17.78125 -4.72432,-5.14839 -8.52157,-9.07192 -10.21875,-10.5 -1.2005,-1.01015 -2.47774,-1.75146 -3.8125,-2.21875 -1.33476,-0.46729 -2.72704,-0.66055 -4.09375,-0.59375 z"
       id="path4436"
       inkscape:connector-curvature="0" />
    <path
       style="fill:#febc05;fill-opacity:1;stroke:none"
       d="m 257.625,367.46875 c 1.36671,-0.0668 2.75899,0.12646 4.09375,0.59375 1.33476,0.46729 2.612,1.2086 3.8125,2.21875 1.69718,1.42808 5.49443,5.35161 10.21875,10.5 4.72432,5.14839 10.39941,11.51658 15.875,17.78125 5.47559,6.26467 10.73653,12.44184 14.6875,17.21875 3.95097,4.77691 6.56827,8.15862 6.71875,8.84375 0.19731,0.89832 0.1934,1.91868 0.0312,3 -0.16215,1.08132 -0.46167,2.20364 -0.90625,3.28125 -0.44458,1.07761 -1.03751,2.11283 -1.6875,3 -0.64999,0.88717 -1.37788,1.64624 -2.15625,2.15625 -0.87915,0.57604 -1.79232,1.03142 -2.75,1.375 -0.95768,0.34358 -1.95583,0.55086 -2.9375,0.65625 -0.98167,0.10539 -1.95512,0.1073 -2.90625,-0.0312 -0.95113,-0.13855 -1.88395,-0.39303 -2.75,-0.78125 -0.66352,-0.29743 -3.58395,-3.15368 -7.71875,-7.40625 -4.1348,-4.25257 -9.4857,-9.89817 -14.9375,-15.78125 -5.4518,-5.88308 -11.01046,-11.99853 -15.625,-17.1875 -4.61454,-5.18897 -8.28323,-9.45475 -9.90625,-11.625 -0.87373,-1.16832 -1.49039,-2.40212 -1.875,-3.625 -0.38461,-1.22288 -0.53711,-2.43434 -0.4375,-3.65625 0.0996,-1.22191 0.4523,-2.42833 1.03125,-3.59375 0.57895,-1.16542 1.3841,-2.29035 2.4375,-3.34375 1.12375,-1.12375 2.35699,-1.99295 3.65625,-2.59375 1.29926,-0.6008 2.66454,-0.9332 4.03125,-1 z"
       id="path4434"
       inkscape:connector-curvature="0" />
    <path
       style="fill:#febc05;fill-opacity:1;stroke:none"
       d="m 257.75,365.65625 c -2.1642,0 -3.5886,0.11987 -4.84375,0.5625 -1.25515,0.44263 -2.34104,1.20803 -3.8125,2.5 -1.09494,0.96137 -2.01141,2.03906 -2.71875,3.15625 -0.70734,1.11719 -1.20554,2.27387 -1.40625,3.34375 -0.1784,0.95098 -0.3088,1.77839 -0.375,2.59375 -0.0662,0.81536 -0.0686,1.59861 0.0625,2.40625 0.13108,0.80764 0.39904,1.66594 0.8125,2.59375 0.41346,0.92781 0.96908,1.94913 1.75,3.125 1.56183,2.35175 3.95781,5.32612 7.5,9.4375 3.54219,4.11138 8.23427,9.35582 14.4375,16.25 7.23862,8.04489 13.43499,14.72611 18.0625,19.5 2.31375,2.38695 4.25395,4.28971 5.71875,5.65625 1.4648,1.36654 2.45245,2.19523 2.9375,2.40625 1.48468,0.64592 3.0161,1.01963 4.53125,1.15625 1.51515,0.13662 3.02707,0.0366 4.46875,-0.3125 1.44168,-0.34907 2.82946,-0.93885 4.09375,-1.75 1.26429,-0.81115 2.39204,-1.84412 3.375,-3.09375 0.86683,-1.102 1.55468,-2.22206 2.03125,-3.34375 0.47657,-1.12169 0.7561,-2.24813 0.84375,-3.40625 0.0876,-1.15812 -0.0126,-2.35123 -0.3125,-3.5625 -0.29994,-1.21127 -0.81381,-2.4376 -1.5,-3.71875 -0.66682,-1.245 -3.67237,-4.99546 -7.875,-9.96875 -4.20263,-4.97329 -9.59525,-11.16468 -15.0625,-17.3125 C 285.0015,387.72718 279.46068,381.61234 275,376.84375 c -4.46068,-4.76859 -7.84832,-8.19564 -9.03125,-9.03125 -1.09095,-0.77063 -2.20833,-1.30985 -3.53125,-1.65625 -1.32292,-0.3464 -2.85138,-0.5 -4.6875,-0.5 z"
       id="path4432"
       inkscape:connector-curvature="0" />
    <path
       style="fill:#febc05;fill-opacity:1;stroke:none"
       d="m 257.75,365.65625 c 1.83612,0 3.36458,0.1536 4.6875,0.5 1.32292,0.3464 2.4403,0.88562 3.53125,1.65625 1.18293,0.83561 4.57057,4.26266 9.03125,9.03125 4.46068,4.76859 10.0015,10.88343 15.46875,17.03125 5.46725,6.14782 10.85987,12.33921 15.0625,17.3125 4.20263,4.97329 7.20818,8.72375 7.875,9.96875 0.68619,1.28115 1.20006,2.50748 1.5,3.71875 0.29994,1.21127 0.40015,2.40438 0.3125,3.5625 -0.0876,1.15812 -0.36718,2.28456 -0.84375,3.40625 -0.47657,1.12169 -1.16442,2.24175 -2.03125,3.34375 -0.98296,1.24963 -2.11071,2.2826 -3.375,3.09375 -1.26429,0.81115 -2.65207,1.40093 -4.09375,1.75 -1.44168,0.34907 -2.9536,0.44912 -4.46875,0.3125 -1.51515,-0.13662 -3.04657,-0.51033 -4.53125,-1.15625 -0.48505,-0.21102 -1.4727,-1.03971 -2.9375,-2.40625 -1.4648,-1.36654 -3.405,-3.2693 -5.71875,-5.65625 -4.62751,-4.77389 -10.82388,-11.45511 -18.0625,-19.5 -6.20323,-6.89418 -10.89531,-12.13862 -14.4375,-16.25 -3.54219,-4.11138 -5.93817,-7.08575 -7.5,-9.4375 -0.78092,-1.17587 -1.33654,-2.19719 -1.75,-3.125 -0.41346,-0.92781 -0.68142,-1.78611 -0.8125,-2.59375 -0.13108,-0.80764 -0.1287,-1.59089 -0.0625,-2.40625 0.0662,-0.81536 0.1966,-1.64277 0.375,-2.59375 0.20071,-1.06988 0.69891,-2.22656 1.40625,-3.34375 0.70734,-1.11719 1.62381,-2.19488 2.71875,-3.15625 1.47146,-1.29197 2.55735,-2.05737 3.8125,-2.5 1.25515,-0.44263 2.67955,-0.5625 4.84375,-0.5625 z"
       id="path4430"
       inkscape:connector-curvature="0" />
    <path
       style="fill:#febc05;fill-opacity:1;stroke:none"
       d="m 363.03125,344.84375 c -0.5923,0.0448 -1.13119,0.18779 -1.625,0.46875 -0.49381,0.28096 -0.93301,0.70103 -1.34375,1.25 -0.41074,0.54897 -0.7819,1.21364 -1.125,2.0625 -0.3431,0.84886 -0.64661,1.88188 -0.9375,3.0625 -0.58178,2.36125 -1.097,5.40169 -1.5625,9.28125 -0.4655,3.87956 -0.90235,8.59712 -1.375,14.25 -0.41244,4.93273 -0.92462,9.92205 -1.40625,14 -0.48163,4.07795 -0.9327,7.24455 -1.25,8.5 -0.48169,1.90591 -0.67668,3.24711 -0.59375,4.65625 0.0829,1.40914 0.44378,2.88621 1.15625,5.03125 0.42086,1.26708 0.9306,2.43004 1.5,3.5 0.5694,1.06996 1.21664,2.04686 1.90625,2.90625 0.68961,0.85939 1.43725,1.61464 2.21875,2.25 0.7815,0.63536 1.59243,1.13338 2.4375,1.53125 0.84507,0.39787 1.71345,0.69683 2.59375,0.84375 0.8803,0.14692 1.76903,0.14874 2.65625,0.0312 0.88722,-0.11749 1.75919,-0.35465 2.625,-0.75 0.86581,-0.39535 1.71518,-0.93832 2.53125,-1.625 0.83805,-0.70517 1.72091,-1.77344 2.46875,-2.90625 0.74784,-1.13281 1.36064,-2.33017 1.65625,-3.34375 0.39505,-1.35455 0.78935,-5.2093 1.125,-10.28125 0.33565,-5.07195 0.61606,-11.37957 0.8125,-17.625 0.19644,-6.24543 0.30383,-12.43752 0.28125,-17.3125 -0.0226,-4.87498 -0.17858,-8.41439 -0.5,-9.375 -0.3598,-1.07534 -0.74194,-2.02318 -1.21875,-2.875 -0.47681,-0.85182 -1.03747,-1.62524 -1.6875,-2.3125 -0.65003,-0.68726 -1.4018,-1.29335 -2.28125,-1.875 -0.87945,-0.58165 -1.89742,-1.12124 -3.0625,-1.65625 -1.24309,-0.57083 -2.35195,-1.01839 -3.34375,-1.3125 -0.9918,-0.29411 -1.86651,-0.43476 -2.65625,-0.375 z"
       id="path4428"
       inkscape:connector-curvature="0" />
    <path
       style="fill:#febc05;fill-opacity:1;stroke:none"
       d="m 363.03125,344.84375 c 0.78974,-0.0598 1.66445,0.0809 2.65625,0.375 0.9918,0.29411 2.10066,0.74167 3.34375,1.3125 1.16508,0.53501 2.18305,1.0746 3.0625,1.65625 0.87945,0.58165 1.63122,1.18774 2.28125,1.875 0.65003,0.68726 1.21069,1.46068 1.6875,2.3125 0.47681,0.85182 0.85895,1.79966 1.21875,2.875 0.32142,0.96061 0.47742,4.50002 0.5,9.375 0.0226,4.87498 -0.0848,11.06707 -0.28125,17.3125 -0.19644,6.24543 -0.47685,12.55305 -0.8125,17.625 -0.33565,5.07195 -0.72995,8.9267 -1.125,10.28125 -0.29561,1.01358 -0.90841,2.21094 -1.65625,3.34375 -0.74784,1.13281 -1.6307,2.20108 -2.46875,2.90625 -0.81607,0.68668 -1.66544,1.22965 -2.53125,1.625 -0.86581,0.39535 -1.73778,0.63251 -2.625,0.75 -0.88722,0.11749 -1.77595,0.11567 -2.65625,-0.0312 -0.8803,-0.14692 -1.74868,-0.44588 -2.59375,-0.84375 -0.84507,-0.39787 -1.656,-0.89589 -2.4375,-1.53125 -0.7815,-0.63536 -1.52914,-1.39061 -2.21875,-2.25 -0.68961,-0.85939 -1.33685,-1.83629 -1.90625,-2.90625 -0.5694,-1.06996 -1.07914,-2.23292 -1.5,-3.5 -0.71247,-2.14504 -1.07332,-3.62211 -1.15625,-5.03125 -0.0829,-1.40914 0.11206,-2.75034 0.59375,-4.65625 0.3173,-1.25545 0.76837,-4.42205 1.25,-8.5 0.48163,-4.07795 0.99381,-9.06727 1.40625,-14 0.47265,-5.65288 0.9095,-10.37044 1.375,-14.25 0.4655,-3.87956 0.98072,-6.92 1.5625,-9.28125 0.29089,-1.18062 0.5944,-2.21364 0.9375,-3.0625 0.3431,-0.84886 0.71426,-1.51353 1.125,-2.0625 0.41074,-0.54897 0.84994,-0.96904 1.34375,-1.25 0.49381,-0.28096 1.0327,-0.42393 1.625,-0.46875 z"
       id="path4426"
       inkscape:connector-curvature="0" />
    <path
       style="fill:#febc05;fill-opacity:1;stroke:none"
       d="m 362.8125,342.6875 c -0.71765,-0.005 -1.36201,0.0943 -1.96875,0.3125 -0.60674,0.21823 -1.17642,0.54027 -1.6875,1.03125 -0.51108,0.49098 -0.97556,1.12414 -1.40625,1.9375 -0.43069,0.81336 -0.82195,1.81463 -1.1875,3 -0.73111,2.37073 -1.34411,5.53097 -1.90625,9.6875 -0.56214,4.15653 -1.07848,9.31691 -1.59375,15.65625 -0.79868,9.82607 -1.98413,20.12987 -2.625,22.90625 -0.42157,1.82633 -0.5986,3.65276 -0.53125,5.46875 0.0673,1.81599 0.37906,3.59962 0.90625,5.3125 0.52719,1.71288 1.29203,3.35798 2.25,4.875 0.95797,1.51702 2.10908,2.92786 3.46875,4.15625 1.20362,1.0874 2.44973,1.92038 3.71875,2.53125 1.26902,0.61087 2.55998,0.99313 3.875,1.125 1.31502,0.13187 2.65838,0.006 4,-0.34375 1.34162,-0.34963 2.68244,-0.91639 4.03125,-1.75 0.64299,-0.39739 1.25019,-0.84054 1.78125,-1.34375 0.53106,-0.50321 1.00785,-1.06528 1.4375,-1.71875 0.85929,-1.30694 1.51445,-2.98173 2.03125,-5.15625 0.5168,-2.17452 0.86652,-4.85249 1.125,-8.25 0.25848,-3.39751 0.41566,-7.49284 0.5,-12.46875 0.15383,-9.075 0.60583,-19.91189 1,-24.0625 0.18911,-1.99135 0.25912,-3.80667 0.1875,-5.46875 -0.0716,-1.66208 -0.278,-3.16532 -0.625,-4.5625 -0.347,-1.39718 -0.83171,-2.67833 -1.46875,-3.875 -0.63704,-1.19667 -1.43327,-2.31446 -2.375,-3.375 -0.59587,-0.67105 -1.44504,-1.38013 -2.46875,-2.03125 -1.02371,-0.65112 -2.21001,-1.24752 -3.4375,-1.78125 -1.22749,-0.53373 -2.51153,-0.99363 -3.71875,-1.3125 -1.20722,-0.31887 -2.3496,-0.49345 -3.3125,-0.5 z"
       id="path4424"
       inkscape:connector-curvature="0" />
    <path
       style="fill:#febc05;fill-opacity:1;stroke:none"
       d="m 362.8125,342.6875 c 0.9629,0.007 2.10528,0.18113 3.3125,0.5 1.20722,0.31887 2.49126,0.77877 3.71875,1.3125 1.22749,0.53373 2.41379,1.13013 3.4375,1.78125 1.02371,0.65112 1.87288,1.3602 2.46875,2.03125 0.94173,1.06054 1.73796,2.17833 2.375,3.375 0.63704,1.19667 1.12175,2.47782 1.46875,3.875 0.347,1.39718 0.55338,2.90042 0.625,4.5625 0.0716,1.66208 0.002,3.4774 -0.1875,5.46875 -0.39417,4.15061 -0.84617,14.9875 -1,24.0625 -0.0843,4.97591 -0.24152,9.07124 -0.5,12.46875 -0.25848,3.39751 -0.6082,6.07548 -1.125,8.25 -0.5168,2.17452 -1.17196,3.84931 -2.03125,5.15625 -0.42965,0.65347 -0.90644,1.21554 -1.4375,1.71875 -0.53106,0.50321 -1.13826,0.94636 -1.78125,1.34375 -1.34881,0.83361 -2.68963,1.40037 -4.03125,1.75 -1.34162,0.34963 -2.68498,0.47562 -4,0.34375 -1.31502,-0.13187 -2.60598,-0.51413 -3.875,-1.125 -1.26902,-0.61087 -2.51513,-1.44385 -3.71875,-2.53125 -1.35967,-1.22839 -2.51078,-2.63923 -3.46875,-4.15625 -0.95797,-1.51702 -1.72281,-3.16212 -2.25,-4.875 -0.52719,-1.71288 -0.8389,-3.49651 -0.90625,-5.3125 -0.0673,-1.81599 0.10968,-3.64242 0.53125,-5.46875 0.64087,-2.77638 1.82632,-13.08018 2.625,-22.90625 0.51527,-6.33934 1.03161,-11.49972 1.59375,-15.65625 0.56214,-4.15653 1.17514,-7.31677 1.90625,-9.6875 0.36555,-1.18537 0.75681,-2.18664 1.1875,-3 0.43069,-0.81336 0.89517,-1.44652 1.40625,-1.9375 0.51108,-0.49098 1.08076,-0.81302 1.6875,-1.03125 0.60674,-0.21823 1.2511,-0.31739 1.96875,-0.3125 z"
       id="path4422"
       inkscape:connector-curvature="0" />
    <path
       sodipodi:type="arc"
       style="fill:url(#radialGradient4526);fill-opacity:1;stroke:none"
       id="path4518"
       sodipodi:cx="328.29959"
       sodipodi:cy="131.10306"
       sodipodi:rx="89.90358"
       sodipodi:ry="86.873116"
       d="m 418.20317,131.10306 c 0,47.97869 -40.2512,86.87311 -89.90358,86.87311 -49.65237,0 -89.90358,-38.89442 -89.90358,-86.87311 0,-47.978699 40.25121,-86.873118 89.90358,-86.873118 49.65238,0 89.90358,38.894419 89.90358,86.873118 z"
       transform="translate(32.324881,395.9798)" />
  </g>
</svg>
